<svg width="29" height="28" viewBox="0 0 29 28" fill="none" xmlns="http://www.w3.org/2000/svg">
<path d="M16.3033 0C18.76 0.00490011 19.2899 0.0257051 20.5479 0.0833207C22.0246 0.150957 23.0335 0.382046 23.9128 0.725862C24.8259 1.08095 25.598 1.5544 26.3702 2.32658C27.1367 3.09312 27.6102 3.87093 27.9653 4.77838C28.3035 5.65764 28.5402 6.66655 28.6078 8.14326C28.6705 9.51059 28.6896 10.0178 28.6921 13.0743V14.6427C28.6896 17.6992 28.6705 18.2064 28.6078 19.5737C28.5402 21.0504 28.3091 22.0593 27.9653 22.9386C27.6102 23.8517 27.1368 24.6239 26.3646 25.396C25.5924 26.1682 24.8202 26.6417 23.9071 26.9968C23.0279 27.3349 22.019 27.5717 20.5423 27.6393C19.0655 27.7069 18.5921 27.7239 14.827 27.7239L14.422 27.7238C11.0255 27.7225 10.5338 27.7044 9.11179 27.6393C7.63507 27.5717 6.62617 27.3406 5.7469 26.9968C4.83382 26.6417 4.06165 26.1682 3.28947 25.396C2.51729 24.6239 2.04384 23.8517 1.68875 22.9386C1.35057 22.0593 1.11384 21.0504 1.04621 19.5737C0.98859 18.3158 0.967791 17.7859 0.962891 15.3291V12.3879C0.967791 9.93113 0.98859 9.40121 1.04621 8.14326C1.11384 6.66655 1.34494 5.65764 1.68875 4.77838C2.04384 3.87093 2.51729 3.09312 3.28947 2.32658C4.06165 1.5544 4.83382 1.08095 5.7469 0.725862C6.62617 0.382046 7.63507 0.14532 9.11743 0.0833207C10.3754 0.0257051 10.9053 0.00490011 13.3621 0H16.3033ZM15.2253 2.49572H14.4288C11.09 2.49658 10.6303 2.50945 9.22452 2.57458C7.8718 2.63658 7.13907 2.86203 6.64871 3.05366C6.00054 3.3073 5.53836 3.60602 5.05364 4.09075C4.56891 4.57547 4.27018 5.03765 4.01655 5.68583C3.82491 6.17619 3.59946 6.90891 3.53746 8.26163C3.47547 9.72143 3.45856 10.1611 3.45856 13.8641C3.45856 17.5672 3.46983 18.0068 3.53746 19.4666C3.59946 20.8194 3.82491 21.5521 4.01655 22.0424C4.27018 22.6906 4.56891 23.1528 5.05364 23.6375C5.53836 24.1222 6.00054 24.421 6.64871 24.6746C7.13907 24.8662 7.8718 25.0917 9.22452 25.1537C10.6843 25.2157 11.124 25.2326 14.827 25.2326L15.2253 25.2325C18.5641 25.2317 19.0238 25.2188 20.4295 25.1537C21.7822 25.0917 22.515 24.8662 23.0053 24.6746C23.6535 24.421 24.1157 24.1222 24.6004 23.6375C25.0851 23.1528 25.3839 22.6906 25.6375 22.0424C25.8291 21.5521 26.0546 20.8194 26.1166 19.4666C26.1786 18.0068 26.1955 17.5672 26.1955 13.8641L26.1954 13.4659C26.1946 10.1271 26.1817 9.66737 26.1166 8.26163C26.0546 6.90891 25.8291 6.17619 25.6375 5.68583C25.3839 5.03765 25.0851 4.57547 24.6004 4.09075C24.1157 3.60602 23.6535 3.3073 23.0053 3.05366C22.515 2.86203 21.7822 2.63658 20.4295 2.57458C18.9697 2.50694 18.5301 2.49567 14.827 2.49567L15.2253 2.49572ZM14.827 6.74546C18.7612 6.74546 21.9457 9.93561 21.9457 13.8641C21.9457 17.7926 18.7555 20.9828 14.827 20.9828C10.8985 20.9828 7.70835 17.7983 7.70835 13.8641C7.70835 9.92998 10.8929 6.74546 14.827 6.74546ZM14.827 9.24234C12.2738 9.24234 10.2052 11.3109 10.2052 13.8641C10.2052 16.4174 12.2738 18.4859 14.827 18.4859C17.3803 18.4859 19.4488 16.4174 19.4488 13.8641C19.4488 11.3109 17.3803 9.24234 14.827 9.24234ZM22.2332 4.80092C23.1514 4.80092 23.8959 5.54535 23.8959 6.46364C23.8959 7.38193 23.1514 8.12635 22.2332 8.12635C21.3149 8.12635 20.5704 7.38193 20.5704 6.46364C20.5704 5.54535 21.3149 4.80092 22.2332 4.80092Z" fill="#FF7438"/>
</svg>
