<svg width="28" height="28" viewBox="0 0 28 28" fill="none" xmlns="http://www.w3.org/2000/svg">
<path d="M23.8525 23.8614H19.7111V17.363C19.7111 15.8134 19.6787 13.8219 17.5455 13.8219C15.386 13.8219 15.057 15.5028 15.057 17.2483V23.8605H10.9104V10.4988H14.8934V12.3214H14.9468C15.5033 11.2688 16.8569 10.1619 18.8764 10.1619C23.0772 10.1619 23.8569 12.9277 23.8569 16.5239V23.8605L23.8525 23.8614ZM6.22563 8.67273C5.90912 8.67284 5.59569 8.61052 5.30331 8.48932C5.01093 8.36812 4.74533 8.19043 4.52172 7.96643C4.29812 7.74243 4.12091 7.47652 4.00024 7.18392C3.87957 6.89133 3.81781 6.5778 3.8185 6.2613C3.81902 5.78493 3.96078 5.3194 4.22587 4.92358C4.49095 4.52776 4.86745 4.21943 5.30776 4.03757C5.74807 3.85571 6.23242 3.80848 6.69957 3.90186C7.16672 3.99525 7.5957 4.22504 7.93225 4.5622C8.26881 4.89935 8.49783 5.32873 8.59037 5.79603C8.6829 6.26334 8.6348 6.74759 8.45213 7.18756C8.26946 7.62752 7.96044 8.00345 7.56413 8.26781C7.16782 8.53216 6.70202 8.67307 6.22563 8.67273ZM8.30288 23.8614H4.1475V10.4997H8.30288V23.8614ZM25.9315 0H2.065C0.924875 0 0 0.902097 0 2.01856V25.9814C0 27.0979 0.924875 28 2.065 28H25.9271C27.0655 28 28 27.0979 28 25.9814V2.01856C28 0.902097 27.0655 0 25.9271 0H25.9315Z" fill="#FF7438"/>
</svg>
