<svg width="273" height="92" viewBox="0 0 273 92" fill="none" xmlns="http://www.w3.org/2000/svg">
<path d="M104.766 39.3744C103.039 39.3744 101.365 39.1456 99.7424 38.688C98.1408 38.2096 96.8512 37.596 95.8736 36.8472L97.5896 33.0408C98.5256 33.7272 99.6384 34.2784 100.928 34.6944C102.218 35.1104 103.507 35.3184 104.797 35.3184C106.232 35.3184 107.293 35.1104 107.979 34.6944C108.666 34.2576 109.009 33.6856 109.009 32.9784C109.009 32.4584 108.801 32.032 108.385 31.6992C107.99 31.3456 107.47 31.0648 106.825 30.8568C106.201 30.6488 105.348 30.42 104.266 30.1704C102.602 29.7752 101.24 29.38 100.179 28.9848C99.1184 28.5896 98.2032 27.9552 97.4336 27.0816C96.6848 26.208 96.3104 25.0432 96.3104 23.5872C96.3104 22.3184 96.6536 21.1744 97.34 20.1552C98.0264 19.1152 99.056 18.2936 100.429 17.6904C101.822 17.0872 103.518 16.7856 105.514 16.7856C106.908 16.7856 108.27 16.952 109.602 17.2848C110.933 17.6176 112.098 18.096 113.096 18.72L111.536 22.5576C109.518 21.4136 107.501 20.8416 105.483 20.8416C104.069 20.8416 103.018 21.0704 102.332 21.528C101.666 21.9856 101.334 22.5888 101.334 23.3376C101.334 24.0864 101.718 24.648 102.488 25.0224C103.278 25.376 104.474 25.7296 106.076 26.0832C107.74 26.4784 109.102 26.8736 110.163 27.2688C111.224 27.664 112.129 28.288 112.878 29.1408C113.647 29.9936 114.032 31.148 114.032 32.604C114.032 33.852 113.678 34.996 112.971 36.036C112.285 37.0552 111.245 37.8664 109.851 38.4696C108.458 39.0728 106.762 39.3744 104.766 39.3744ZM125.598 35.3496C126.471 35.3496 127.241 35.2248 127.906 34.9752C128.593 34.7048 129.227 34.2888 129.81 33.7272L132.399 36.5352C130.818 38.3448 128.51 39.2496 125.473 39.2496C123.58 39.2496 121.906 38.8856 120.45 38.1576C118.994 37.4088 117.87 36.3792 117.08 35.0688C116.29 33.7584 115.894 32.2712 115.894 30.6072C115.894 28.964 116.279 27.4872 117.049 26.1768C117.839 24.8456 118.91 23.816 120.262 23.088C121.635 22.3392 123.174 21.9648 124.88 21.9648C126.482 21.9648 127.938 22.308 129.248 22.9944C130.558 23.66 131.598 24.6376 132.368 25.9272C133.158 27.196 133.554 28.704 133.554 30.4512L121.136 32.8536C121.49 33.6856 122.041 34.3096 122.79 34.7256C123.559 35.1416 124.495 35.3496 125.598 35.3496ZM124.88 25.6464C123.653 25.6464 122.654 26.0416 121.885 26.832C121.115 27.6224 120.71 28.7144 120.668 30.108L128.842 28.5168C128.614 27.6432 128.146 26.9464 127.438 26.4264C126.731 25.9064 125.878 25.6464 124.88 25.6464ZM158.322 21.9648C160.423 21.9648 162.087 22.5888 163.314 23.8368C164.562 25.064 165.186 26.9152 165.186 29.3904V39H160.319V30.1392C160.319 28.808 160.038 27.82 159.477 27.1752C158.936 26.5096 158.156 26.1768 157.137 26.1768C155.993 26.1768 155.088 26.5512 154.422 27.3C153.757 28.028 153.424 29.12 153.424 30.576V39H148.557V30.1392C148.557 27.4976 147.496 26.1768 145.374 26.1768C144.251 26.1768 143.357 26.5512 142.691 27.3C142.025 28.028 141.693 29.12 141.693 30.576V39H136.825V22.2144H141.474V24.1488C142.098 23.4416 142.857 22.9008 143.752 22.5264C144.667 22.152 145.665 21.9648 146.747 21.9648C147.933 21.9648 149.004 22.204 149.961 22.6824C150.917 23.14 151.687 23.816 152.269 24.7104C152.956 23.8368 153.819 23.1608 154.859 22.6824C155.92 22.204 157.074 21.9648 158.322 21.9648ZM169.549 22.2144H174.416V39H169.549V22.2144ZM171.982 19.8744C171.088 19.8744 170.36 19.6144 169.798 19.0944C169.237 18.5744 168.956 17.9296 168.956 17.16C168.956 16.3904 169.237 15.7456 169.798 15.2256C170.36 14.7056 171.088 14.4456 171.982 14.4456C172.877 14.4456 173.605 14.6952 174.166 15.1944C174.728 15.6936 175.009 16.3176 175.009 17.0664C175.009 17.8776 174.728 18.5536 174.166 19.0944C173.605 19.6144 172.877 19.8744 171.982 19.8744ZM186.92 39.2496C185.152 39.2496 183.561 38.8856 182.147 38.1576C180.753 37.4088 179.661 36.3792 178.871 35.0688C178.08 33.7584 177.685 32.2712 177.685 30.6072C177.685 28.9432 178.08 27.456 178.871 26.1456C179.661 24.8352 180.753 23.816 182.147 23.088C183.561 22.3392 185.152 21.9648 186.92 21.9648C188.688 21.9648 190.269 22.3392 191.663 23.088C193.056 23.816 194.148 24.8352 194.939 26.1456C195.729 27.456 196.124 28.9432 196.124 30.6072C196.124 32.2712 195.729 33.7584 194.939 35.0688C194.148 36.3792 193.056 37.4088 191.663 38.1576C190.269 38.8856 188.688 39.2496 186.92 39.2496ZM186.92 35.256C188.168 35.256 189.188 34.84 189.978 34.008C190.789 33.1552 191.195 32.0216 191.195 30.6072C191.195 29.1928 190.789 28.0696 189.978 27.2376C189.188 26.3848 188.168 25.9584 186.92 25.9584C185.672 25.9584 184.643 26.3848 183.832 27.2376C183.02 28.0696 182.615 29.1928 182.615 30.6072C182.615 32.0216 183.02 33.1552 183.832 34.008C184.643 34.84 185.672 35.256 186.92 35.256ZM209.486 38.1888C209.008 38.5424 208.415 38.8128 207.708 39C207.022 39.1664 206.304 39.2496 205.555 39.2496C203.538 39.2496 201.988 38.74 200.906 37.7208C199.825 36.7016 199.284 35.204 199.284 33.228V18.5016H204.151V22.5888H208.301V26.3328H204.151V33.1656C204.151 33.8728 204.328 34.424 204.682 34.8192C205.035 35.1936 205.545 35.3808 206.21 35.3808C206.959 35.3808 207.625 35.1728 208.207 34.7568L209.486 38.1888ZM212.235 22.2144H217.103V39H212.235V22.2144ZM214.669 19.8744C213.775 19.8744 213.047 19.6144 212.485 19.0944C211.923 18.5744 211.643 17.9296 211.643 17.16C211.643 16.3904 211.923 15.7456 212.485 15.2256C213.047 14.7056 213.775 14.4456 214.669 14.4456C215.563 14.4456 216.291 14.6952 216.853 15.1944C217.415 15.6936 217.695 16.3176 217.695 17.0664C217.695 17.8776 217.415 18.5536 216.853 19.0944C216.291 19.6144 215.563 19.8744 214.669 19.8744ZM229.732 39.2496C227.943 39.2496 226.331 38.8856 224.896 38.1576C223.481 37.4088 222.369 36.3792 221.557 35.0688C220.767 33.7584 220.372 32.2712 220.372 30.6072C220.372 28.9432 220.767 27.456 221.557 26.1456C222.369 24.8352 223.481 23.816 224.896 23.088C226.331 22.3392 227.943 21.9648 229.732 21.9648C231.5 21.9648 233.039 22.3392 234.349 23.088C235.681 23.816 236.648 24.8664 237.251 26.2392L233.476 28.2672C232.602 26.728 231.344 25.9584 229.701 25.9584C228.432 25.9584 227.381 26.3744 226.549 27.2064C225.717 28.0384 225.301 29.172 225.301 30.6072C225.301 32.0424 225.717 33.176 226.549 34.008C227.381 34.84 228.432 35.256 229.701 35.256C231.365 35.256 232.623 34.4864 233.476 32.9472L237.251 35.0064C236.648 36.3376 235.681 37.3776 234.349 38.1264C233.039 38.8752 231.5 39.2496 229.732 39.2496ZM245.701 39.2496C244.307 39.2496 242.945 39.0832 241.613 38.7504C240.282 38.3968 239.221 37.96 238.431 37.44L240.053 33.9456C240.802 34.424 241.707 34.8192 242.768 35.1312C243.829 35.4224 244.869 35.568 245.888 35.568C247.947 35.568 248.977 35.0584 248.977 34.0392C248.977 33.5608 248.696 33.2176 248.134 33.0096C247.573 32.8016 246.709 32.6248 245.545 32.4792C244.172 32.2712 243.038 32.032 242.144 31.7616C241.249 31.4912 240.469 31.0128 239.804 30.3264C239.159 29.64 238.837 28.6624 238.837 27.3936C238.837 26.3328 239.138 25.3968 239.741 24.5856C240.365 23.7536 241.26 23.1088 242.425 22.6512C243.61 22.1936 245.004 21.9648 246.605 21.9648C247.791 21.9648 248.966 22.1 250.131 22.3704C251.317 22.62 252.294 22.9736 253.064 23.4312L251.441 26.8944C249.965 26.0624 248.353 25.6464 246.605 25.6464C245.565 25.6464 244.785 25.792 244.265 26.0832C243.745 26.3744 243.485 26.7488 243.485 27.2064C243.485 27.7264 243.766 28.0904 244.328 28.2984C244.889 28.5064 245.784 28.704 247.011 28.8912C248.384 29.12 249.507 29.3696 250.381 29.64C251.254 29.8896 252.013 30.3576 252.658 31.044C253.303 31.7304 253.625 32.6872 253.625 33.9144C253.625 34.9544 253.313 35.88 252.689 36.6912C252.065 37.5024 251.15 38.1368 249.944 38.5944C248.758 39.0312 247.344 39.2496 245.701 39.2496ZM109.165 50.7856C111.765 50.7856 113.793 51.6072 115.249 53.2504C116.705 54.8728 117.433 57.192 117.433 60.208V73H112.378V60.364C112.378 58.6168 111.962 57.3064 111.13 56.4328C110.319 55.5384 109.186 55.0912 107.73 55.0912C106.19 55.0912 104.953 55.5696 104.017 56.5264C103.102 57.4624 102.644 58.856 102.644 60.7072V73H97.5896V51.16H102.488V53.812C103.237 52.8136 104.173 52.0648 105.296 51.5656C106.419 51.0456 107.709 50.7856 109.165 50.7856ZM122.422 51.16H127.476V68.8816H138.427V73H122.422V51.16ZM150.705 51.16C152.639 51.16 154.314 51.4824 155.728 52.1272C157.163 52.772 158.266 53.6872 159.035 54.8728C159.805 56.0584 160.19 57.4624 160.19 59.0848C160.19 60.6864 159.805 62.0904 159.035 63.2968C158.266 64.4824 157.163 65.3976 155.728 66.0424C154.314 66.6664 152.639 66.9784 150.705 66.9784H146.306V73H141.251V51.16H150.705ZM150.424 62.86C151.943 62.86 153.097 62.5376 153.887 61.8928C154.678 61.2272 155.073 60.2912 155.073 59.0848C155.073 57.8576 154.678 56.9216 153.887 56.2768C153.097 55.6112 151.943 55.2784 150.424 55.2784H146.306V62.86H150.424ZM188.851 57.2752C186.979 56.1936 184.972 55.4968 182.829 55.1848V73H177.775V55.1848C175.632 55.4968 173.615 56.1936 171.722 57.2752L170.006 53.5C171.504 52.6056 173.126 51.9296 174.873 51.472C176.62 51.0144 178.42 50.7856 180.271 50.7856C182.143 50.7856 183.952 51.0144 185.7 51.472C187.468 51.9296 189.09 52.6056 190.567 53.5L188.851 57.2752ZM199.241 69.3496C200.114 69.3496 200.884 69.2248 201.549 68.9752C202.236 68.7048 202.87 68.2888 203.453 67.7272L206.042 70.5352C204.461 72.3448 202.153 73.2496 199.116 73.2496C197.223 73.2496 195.549 72.8856 194.093 72.1576C192.637 71.4088 191.513 70.3792 190.723 69.0688C189.933 67.7584 189.537 66.2712 189.537 64.6072C189.537 62.964 189.922 61.4872 190.692 60.1768C191.482 58.8456 192.553 57.816 193.905 57.088C195.278 56.3392 196.817 55.9648 198.523 55.9648C200.125 55.9648 201.581 56.308 202.891 56.9944C204.201 57.66 205.241 58.6376 206.011 59.9272C206.801 61.196 207.197 62.704 207.197 64.4512L194.779 66.8536C195.133 67.6856 195.684 68.3096 196.433 68.7256C197.202 69.1416 198.138 69.3496 199.241 69.3496ZM198.523 59.6464C197.296 59.6464 196.297 60.0416 195.528 60.832C194.758 61.6224 194.353 62.7144 194.311 64.108L202.485 62.5168C202.257 61.6432 201.789 60.9464 201.081 60.4264C200.374 59.9064 199.521 59.6464 198.523 59.6464ZM227.503 56.2144V73H222.855V71.0656C221.648 72.5216 219.901 73.2496 217.613 73.2496C216.032 73.2496 214.597 72.896 213.307 72.1888C212.039 71.4816 211.04 70.4728 210.312 69.1624C209.584 67.852 209.22 66.3336 209.22 64.6072C209.22 62.8808 209.584 61.3624 210.312 60.052C211.04 58.7416 212.039 57.7328 213.307 57.0256C214.597 56.3184 216.032 55.9648 217.613 55.9648C219.755 55.9648 221.43 56.6408 222.636 57.9928V56.2144H227.503ZM218.455 69.256C219.683 69.256 220.702 68.84 221.513 68.008C222.324 67.1552 222.73 66.0216 222.73 64.6072C222.73 63.1928 222.324 62.0696 221.513 61.2376C220.702 60.3848 219.683 59.9584 218.455 59.9584C217.207 59.9584 216.178 60.3848 215.367 61.2376C214.555 62.0696 214.15 63.1928 214.15 64.6072C214.15 66.0216 214.555 67.1552 215.367 68.008C216.178 68.84 217.207 69.256 218.455 69.256ZM253.506 55.9648C255.607 55.9648 257.271 56.5888 258.498 57.8368C259.746 59.064 260.37 60.9152 260.37 63.3904V73H255.503V64.1392C255.503 62.808 255.222 61.82 254.661 61.1752C254.12 60.5096 253.34 60.1768 252.321 60.1768C251.177 60.1768 250.272 60.5512 249.606 61.3C248.941 62.028 248.608 63.12 248.608 64.576V73H243.741V64.1392C243.741 61.4976 242.68 60.1768 240.558 60.1768C239.435 60.1768 238.541 60.5512 237.875 61.3C237.21 62.028 236.877 63.12 236.877 64.576V73H232.01V56.2144H236.658V58.1488C237.282 57.4416 238.042 56.9008 238.936 56.5264C239.851 56.152 240.85 55.9648 241.931 55.9648C243.117 55.9648 244.188 56.204 245.145 56.6824C246.102 57.14 246.871 57.816 247.454 58.7104C248.14 57.8368 249.003 57.1608 250.043 56.6824C251.104 56.204 252.258 55.9648 253.506 55.9648Z" fill="white"/>
<path d="M43.4769 84.9994C56.5079 79.7183 58.9012 71.8158 57.3518 63.53C54.6488 49.0831 30.6939 45.2899 27.3603 28.4352C24.4826 13.8819 39.0647 -0.656093 63.3691 7.21255C42.9284 8.86156 40.3238 24.7383 44.1665 31.431C52.0731 45.2022 73.367 43.3005 74.9328 63.1608C76.3934 81.6912 53.7089 84.9994 43.4769 84.9994Z" fill="white"/>
<path d="M74.108 33.6413C76.9219 31.2393 78.6601 27.944 78.6601 24.3064C78.6601 16.9571 71.5725 10.9991 62.8303 10.9991C54.0881 10.9991 47.0001 16.9571 47.0001 24.3064C47.0001 31.6557 54.0877 37.6132 62.8303 37.6132C64.4611 37.6143 66.0848 37.4009 67.6591 36.9785C68.4787 37.5231 69.3699 37.9533 70.3076 38.2569C73.8965 39.4418 78.1233 39.1354 82.0001 37.8528C79.0159 37.2319 76.2756 35.7696 74.108 33.6413V33.6413Z" fill="white"/>
<path d="M31.5514 50.9996C20.81 50.9996 12.104 58.2333 12.104 67.1562C12.104 71.5743 14.2411 75.5764 17.6993 78.4931C15.0351 81.0778 11.6674 82.8537 8 83.608C12.7635 85.1655 17.9587 85.5365 22.3662 84.0989C23.5182 83.7307 24.6129 83.2087 25.6197 82.5477C27.554 83.06 29.5491 83.3184 31.5527 83.3162C42.294 83.3162 51 76.0824 51 67.1592C51 58.2359 42.2927 50.9996 31.5514 50.9996Z" fill="white"/>
</svg>
