<svg width="278" height="101" viewBox="0 0 278 101" fill="none" xmlns="http://www.w3.org/2000/svg">
<path d="M105.518 51.3744C103.791 51.3744 102.138 51.1456 100.557 50.688C98.976 50.2304 97.7072 49.648 96.7504 48.9408L98.8096 45.0408C99.808 45.7688 100.931 46.3304 102.179 46.7256C103.427 47.1208 104.706 47.3184 106.017 47.3184C107.41 47.3184 108.513 47.0896 109.324 46.632C110.135 46.1744 110.541 45.5504 110.541 44.76C110.541 44.1152 110.218 43.6264 109.574 43.2936C108.929 42.94 107.899 42.5656 106.485 42.1704C105.07 41.7544 103.916 41.3592 103.022 40.9848C102.127 40.5896 101.347 40.0072 100.682 39.2376C100.037 38.468 99.7144 37.4488 99.7144 36.18C99.7144 34.7032 100.12 33.4032 100.931 32.28C101.763 31.1568 102.928 30.2936 104.426 29.6904C105.944 29.0872 107.702 28.7856 109.698 28.7856C111.175 28.7856 112.569 28.952 113.879 29.2848C115.19 29.5968 116.313 30.0544 117.249 30.6576L115.346 34.5264C114.534 33.9648 113.619 33.5488 112.6 33.2784C111.581 32.9872 110.52 32.8416 109.418 32.8416C107.982 32.8416 106.849 33.0912 106.017 33.5904C105.185 34.0896 104.769 34.7344 104.769 35.5248C104.769 36.0032 104.946 36.4088 105.299 36.7416C105.653 37.0536 106.1 37.3136 106.641 37.5216C107.182 37.7088 107.941 37.9376 108.918 38.208C110.312 38.5824 111.456 38.9672 112.35 39.3624C113.245 39.7368 114.004 40.2984 114.628 41.0472C115.273 41.7752 115.595 42.7424 115.595 43.9488C115.595 45.4464 115.179 46.7568 114.347 47.88C113.515 48.9824 112.34 49.8456 110.822 50.4696C109.303 51.0728 107.535 51.3744 105.518 51.3744ZM127.722 33.9648C130.114 33.9648 132.038 34.62 133.494 35.9304C134.971 37.2408 135.71 39.1128 135.71 41.5464C135.71 41.9624 135.699 42.2744 135.678 42.4824L122.73 44.8536C123.167 46.5176 124.571 47.3496 126.942 47.3496C127.816 47.3496 128.638 47.2248 129.407 46.9752C130.177 46.7048 130.842 46.3096 131.404 45.7896L133.432 49.0032C132.496 49.752 131.425 50.3136 130.218 50.688C129.012 51.0624 127.743 51.2496 126.412 51.2496C124.686 51.2496 123.167 50.948 121.857 50.3448C120.567 49.7208 119.569 48.8368 118.862 47.6928C118.175 46.5488 117.832 45.228 117.832 43.7304C117.832 41.8792 118.248 40.2152 119.08 38.7384C119.912 37.2408 121.077 36.076 122.574 35.244C124.093 34.3912 125.809 33.9648 127.722 33.9648ZM127.504 37.6152C126.194 37.6152 125.122 38.0104 124.29 38.8008C123.479 39.5912 122.949 40.652 122.699 41.9832L131.186 40.4232C131.061 39.5288 130.666 38.8424 130 38.364C129.355 37.8648 128.523 37.6152 127.504 37.6152ZM161.326 33.9648C163.157 33.9648 164.613 34.464 165.694 35.4624C166.776 36.44 167.317 37.8336 167.317 39.6432C167.317 40.3088 167.244 40.9952 167.098 41.7024L165.258 51H160.39L162.169 42.0456C162.252 41.6296 162.294 41.2032 162.294 40.7664C162.294 39.9136 162.065 39.2688 161.607 38.832C161.17 38.3952 160.515 38.1768 159.642 38.1768C157.291 38.1768 155.825 39.5808 155.242 42.3888L153.526 51H148.659L150.438 42.0456C150.521 41.6296 150.562 41.2136 150.562 40.7976C150.562 39.9448 150.334 39.3 149.876 38.8632C149.439 38.4056 148.784 38.1768 147.91 38.1768C145.56 38.1768 144.083 39.6016 143.48 42.4512L141.795 51H136.928L140.266 34.2144H144.884L144.51 35.9616C145.966 34.6304 147.723 33.9648 149.782 33.9648C150.947 33.9648 151.977 34.204 152.871 34.6824C153.786 35.14 154.473 35.816 154.93 36.7104C155.742 35.816 156.688 35.14 157.77 34.6824C158.851 34.204 160.037 33.9648 161.326 33.9648ZM172.99 34.2144H177.826L174.487 51H169.651L172.99 34.2144ZM176.235 31.8744C175.403 31.8744 174.716 31.6352 174.175 31.1568C173.655 30.6576 173.395 30.0544 173.395 29.3472C173.395 28.5152 173.687 27.8288 174.269 27.288C174.872 26.7264 175.652 26.4456 176.609 26.4456C177.462 26.4456 178.148 26.6848 178.668 27.1632C179.209 27.6208 179.479 28.1928 179.479 28.8792C179.479 29.7736 179.178 30.5016 178.575 31.0632C177.971 31.604 177.191 31.8744 176.235 31.8744ZM187.773 51.2496C186.088 51.2496 184.601 50.9376 183.311 50.3136C182.042 49.6896 181.054 48.816 180.347 47.6928C179.661 46.5488 179.317 45.228 179.317 43.7304C179.317 41.8792 179.754 40.2152 180.628 38.7384C181.501 37.2616 182.708 36.0968 184.247 35.244C185.786 34.3912 187.523 33.9648 189.457 33.9648C191.163 33.9648 192.65 34.2768 193.919 34.9008C195.188 35.5248 196.165 36.4088 196.852 37.5528C197.559 38.676 197.913 39.9864 197.913 41.484C197.913 43.3352 197.476 44.9992 196.602 46.476C195.749 47.9528 194.543 49.1176 192.983 49.9704C191.444 50.8232 189.707 51.2496 187.773 51.2496ZM188.085 47.2248C189.021 47.2248 189.863 46.996 190.612 46.5384C191.361 46.06 191.943 45.4048 192.359 44.5728C192.775 43.7408 192.983 42.784 192.983 41.7024C192.983 40.5584 192.65 39.6536 191.985 38.988C191.319 38.3224 190.383 37.9896 189.177 37.9896C188.22 37.9896 187.367 38.2288 186.618 38.7072C185.869 39.1648 185.287 39.8096 184.871 40.6416C184.455 41.4736 184.247 42.4304 184.247 43.512C184.247 44.656 184.58 45.5608 185.245 46.2264C185.932 46.892 186.878 47.2248 188.085 47.2248ZM205.347 45.072C205.306 45.2384 205.285 45.4672 205.285 45.7584C205.285 46.84 205.867 47.3808 207.032 47.3808C207.698 47.3808 208.363 47.1832 209.029 46.788L209.747 50.2512C208.665 50.9168 207.261 51.2496 205.535 51.2496C203.954 51.2496 202.685 50.8336 201.728 50.0016C200.792 49.1696 200.324 48.0256 200.324 46.5696C200.324 46.1536 200.376 45.6648 200.48 45.1032L203.382 30.5016H208.249L207.438 34.5888H211.587L210.839 38.3328H206.689L205.347 45.072ZM215.616 34.2144H220.452L217.113 51H212.277L215.616 34.2144ZM218.86 31.8744C218.028 31.8744 217.342 31.6352 216.801 31.1568C216.281 30.6576 216.021 30.0544 216.021 29.3472C216.021 28.5152 216.312 27.8288 216.895 27.288C217.498 26.7264 218.278 26.4456 219.235 26.4456C220.088 26.4456 220.774 26.6848 221.294 27.1632C221.835 27.6208 222.105 28.1928 222.105 28.8792C222.105 29.7736 221.804 30.5016 221.2 31.0632C220.597 31.604 219.817 31.8744 218.86 31.8744ZM230.492 51.2496C228.765 51.2496 227.257 50.9376 225.968 50.3136C224.678 49.6896 223.68 48.816 222.973 47.6928C222.286 46.5488 221.943 45.228 221.943 43.7304C221.943 41.8792 222.38 40.2152 223.253 38.7384C224.127 37.2616 225.344 36.0968 226.904 35.244C228.464 34.3912 230.221 33.9648 232.177 33.9648C233.965 33.9648 235.505 34.3392 236.794 35.088C238.105 35.816 239.082 36.856 239.727 38.208L235.609 40.2672C234.881 38.7488 233.633 37.9896 231.865 37.9896C230.908 37.9896 230.045 38.2288 229.275 38.7072C228.526 39.1648 227.933 39.8096 227.497 40.6416C227.081 41.4736 226.873 42.42 226.873 43.4808C226.873 44.6248 227.216 45.54 227.902 46.2264C228.589 46.892 229.545 47.2248 230.773 47.2248C232.561 47.2248 233.934 46.476 234.891 44.9784L238.479 47.2248C237.668 48.4936 236.555 49.4816 235.141 50.1888C233.747 50.896 232.197 51.2496 230.492 51.2496ZM246.18 51.2496C244.724 51.2496 243.341 51.0936 242.03 50.7816C240.741 50.4488 239.732 50.0224 239.004 49.5024L240.876 45.9768C241.604 46.4552 242.488 46.84 243.528 47.1312C244.589 47.4224 245.649 47.568 246.71 47.568C247.813 47.568 248.634 47.4328 249.175 47.1624C249.716 46.8712 249.986 46.4656 249.986 45.9456C249.986 45.5296 249.747 45.228 249.269 45.0408C248.79 44.8536 248.021 44.656 246.96 44.448C245.753 44.2192 244.755 43.9696 243.965 43.6992C243.195 43.4288 242.519 42.992 241.937 42.3888C241.375 41.7648 241.094 40.9224 241.094 39.8616C241.094 38.0104 241.864 36.5648 243.403 35.5248C244.963 34.4848 247.001 33.9648 249.518 33.9648C250.683 33.9648 251.817 34.0896 252.919 34.3392C254.021 34.5888 254.957 34.932 255.727 35.3688L253.98 38.9256C252.607 38.0728 250.953 37.6464 249.019 37.6464C247.958 37.6464 247.147 37.8024 246.585 38.1144C246.045 38.4264 245.774 38.8216 245.774 39.3C245.774 39.7368 246.013 40.0592 246.492 40.2672C246.97 40.4544 247.771 40.6624 248.894 40.8912C250.08 41.12 251.047 41.3696 251.796 41.64C252.565 41.8896 253.231 42.316 253.793 42.9192C254.354 43.5224 254.635 44.344 254.635 45.384C254.635 47.256 253.845 48.7016 252.264 49.7208C250.704 50.74 248.676 51.2496 246.18 51.2496ZM113.255 62.7856C115.502 62.7856 117.27 63.4304 118.559 64.72C119.849 65.9888 120.494 67.7776 120.494 70.0864C120.494 70.8976 120.4 71.792 120.213 72.7696L117.779 85H112.694L115.19 72.6448C115.314 71.9792 115.377 71.376 115.377 70.8352C115.377 69.608 115.034 68.6824 114.347 68.0584C113.682 67.4136 112.714 67.0912 111.446 67.0912C109.948 67.0912 108.669 67.5384 107.608 68.4328C106.547 69.3272 105.83 70.7 105.455 72.5512L102.99 85H97.9048L102.273 63.16H107.171L106.734 65.4376C107.587 64.5848 108.565 63.9296 109.667 63.472C110.77 63.0144 111.966 62.7856 113.255 62.7856ZM127.105 63.16H132.19L128.634 80.8816H139.585L138.742 85H122.737L127.105 63.16ZM154.764 63.16C157.489 63.16 159.59 63.7632 161.067 64.9696C162.564 66.1552 163.313 67.8192 163.313 69.9616C163.313 71.792 162.876 73.3936 162.003 74.7664C161.15 76.1184 159.923 77.1584 158.321 77.8864C156.74 78.6144 154.868 78.9784 152.705 78.9784H147.838L146.652 85H141.567L145.935 63.16H154.764ZM152.923 74.86C154.608 74.86 155.908 74.4752 156.823 73.7056C157.739 72.936 158.196 71.8336 158.196 70.3984C158.196 69.3584 157.843 68.5784 157.135 68.0584C156.449 67.5384 155.451 67.2784 154.14 67.2784H150.178L148.649 74.86H152.923ZM192.442 69.2752C190.612 68.2144 188.698 67.5384 186.701 67.2472L183.144 85H178.059L181.647 67.1536C179.276 67.4032 177.185 68.0792 175.376 69.1816L174.065 65.3752C175.417 64.5432 177.019 63.9088 178.87 63.472C180.721 63.0144 182.593 62.7856 184.486 62.7856C186.441 62.7856 188.282 63.0248 190.008 63.5032C191.756 63.9608 193.305 64.6264 194.657 65.5L192.442 69.2752ZM201.365 67.9648C203.757 67.9648 205.681 68.62 207.137 69.9304C208.614 71.2408 209.353 73.1128 209.353 75.5464C209.353 75.9624 209.342 76.2744 209.321 76.4824L196.373 78.8536C196.81 80.5176 198.214 81.3496 200.585 81.3496C201.459 81.3496 202.281 81.2248 203.05 80.9752C203.82 80.7048 204.485 80.3096 205.047 79.7896L207.075 83.0032C206.139 83.752 205.068 84.3136 203.861 84.688C202.655 85.0624 201.386 85.2496 200.055 85.2496C198.329 85.2496 196.81 84.948 195.5 84.3448C194.21 83.7208 193.212 82.8368 192.505 81.6928C191.818 80.5488 191.475 79.228 191.475 77.7304C191.475 75.8792 191.891 74.2152 192.723 72.7384C193.555 71.2408 194.72 70.076 196.217 69.244C197.736 68.3912 199.452 67.9648 201.365 67.9648ZM201.147 71.6152C199.837 71.6152 198.765 72.0104 197.933 72.8008C197.122 73.5912 196.592 74.652 196.342 75.9832L204.829 74.4232C204.704 73.5288 204.309 72.8424 203.643 72.364C202.998 71.8648 202.166 71.6152 201.147 71.6152ZM230.414 81.3808C230.976 81.3808 231.444 81.2976 231.818 81.1312L231.319 84.844C230.487 85.1144 229.603 85.2496 228.667 85.2496C227.461 85.2496 226.462 85.0104 225.672 84.532C224.902 84.0536 224.372 83.388 224.081 82.5352C222.604 84.3448 220.628 85.2496 218.153 85.2496C216.842 85.2496 215.636 84.948 214.533 84.3448C213.431 83.7416 212.547 82.8784 211.881 81.7552C211.237 80.6112 210.914 79.2696 210.914 77.7304C210.914 75.8792 211.32 74.2152 212.131 72.7384C212.963 71.2408 214.086 70.076 215.501 69.244C216.915 68.3912 218.475 67.9648 220.181 67.9648C222.76 67.9648 224.58 68.8072 225.641 70.492L226.077 68.2144H230.945L228.761 79.1032C228.719 79.2696 228.698 79.4984 228.698 79.7896C228.698 80.3304 228.844 80.736 229.135 81.0064C229.447 81.256 229.873 81.3808 230.414 81.3808ZM219.65 81.2248C220.607 81.2248 221.46 80.996 222.209 80.5384C222.957 80.06 223.54 79.4048 223.956 78.5728C224.372 77.7408 224.58 76.784 224.58 75.7024C224.58 74.5584 224.237 73.6536 223.55 72.988C222.885 72.3224 221.949 71.9896 220.742 71.9896C219.785 71.9896 218.933 72.2288 218.184 72.7072C217.435 73.1648 216.853 73.8096 216.437 74.6416C216.021 75.4736 215.813 76.4304 215.813 77.512C215.813 78.656 216.145 79.5608 216.811 80.2264C217.497 80.892 218.444 81.2248 219.65 81.2248ZM258.126 67.9648C259.956 67.9648 261.412 68.464 262.494 69.4624C263.575 70.44 264.116 71.8336 264.116 73.6432C264.116 74.3088 264.043 74.9952 263.898 75.7024L262.057 85H257.19L258.968 76.0456C259.051 75.6296 259.093 75.2032 259.093 74.7664C259.093 73.9136 258.864 73.2688 258.406 72.832C257.97 72.3952 257.314 72.1768 256.441 72.1768C254.09 72.1768 252.624 73.5808 252.042 76.3888L250.326 85H245.458L247.237 76.0456C247.32 75.6296 247.362 75.2136 247.362 74.7976C247.362 73.9448 247.133 73.3 246.675 72.8632C246.238 72.4056 245.583 72.1768 244.71 72.1768C242.359 72.1768 240.882 73.6016 240.279 76.4512L238.594 85H233.727L237.066 68.2144H241.683L241.309 69.9616C242.765 68.6304 244.522 67.9648 246.582 67.9648C247.746 67.9648 248.776 68.204 249.67 68.6824C250.586 69.14 251.272 69.816 251.73 70.7104C252.541 69.816 253.487 69.14 254.569 68.6824C255.65 68.204 256.836 67.9648 258.126 67.9648Z" fill="black"/>
<path d="M102.496 4.9H103.796L102.197 12.869H107.137L106.916 14H100.676L102.496 4.9ZM115.859 13.025C116.093 13.025 116.305 12.986 116.496 12.908L116.366 13.922C116.106 14.026 115.798 14.078 115.443 14.078C115.001 14.078 114.637 13.9783 114.351 13.779C114.065 13.571 113.887 13.2893 113.818 12.934C113.497 13.3067 113.112 13.5927 112.661 13.792C112.219 13.9827 111.721 14.078 111.166 14.078C110.577 14.078 110.052 13.961 109.593 13.727C109.134 13.4843 108.774 13.1377 108.514 12.687C108.254 12.2363 108.124 11.7077 108.124 11.101C108.124 10.321 108.293 9.62333 108.631 9.008C108.969 8.39267 109.433 7.91167 110.022 7.565C110.62 7.21833 111.287 7.045 112.024 7.045C112.613 7.045 113.116 7.149 113.532 7.357C113.957 7.565 114.282 7.87267 114.507 8.28L114.741 7.11H115.989L115.04 11.894C115.014 12.024 115.001 12.1367 115.001 12.232C115.001 12.492 115.075 12.6913 115.222 12.83C115.369 12.96 115.582 13.025 115.859 13.025ZM111.439 12.986C111.95 12.986 112.41 12.8647 112.817 12.622C113.233 12.3707 113.554 12.024 113.779 11.582C114.013 11.14 114.13 10.6373 114.13 10.074C114.13 9.45867 113.952 8.982 113.597 8.644C113.242 8.306 112.735 8.137 112.076 8.137C111.565 8.137 111.105 8.26267 110.698 8.514C110.291 8.75667 109.97 9.099 109.736 9.541C109.502 9.983 109.385 10.4857 109.385 11.049C109.385 11.6557 109.563 12.1323 109.918 12.479C110.282 12.817 110.789 12.986 111.439 12.986ZM122.393 7.045C122.982 7.045 123.506 7.16633 123.966 7.409C124.425 7.643 124.785 7.98533 125.045 8.436C125.305 8.878 125.435 9.40233 125.435 10.009C125.435 10.789 125.266 11.4867 124.928 12.102C124.59 12.7173 124.122 13.2027 123.524 13.558C122.934 13.9047 122.271 14.078 121.535 14.078C120.928 14.078 120.408 13.9653 119.975 13.74C119.55 13.5147 119.229 13.1853 119.013 12.752L118.753 14H117.57L119.494 4.354H120.742L120.027 7.903C120.668 7.331 121.457 7.045 122.393 7.045ZM121.483 12.986C121.994 12.986 122.453 12.8647 122.861 12.622C123.268 12.3707 123.589 12.024 123.823 11.582C124.057 11.14 124.174 10.6373 124.174 10.074C124.174 9.45867 123.996 8.982 123.641 8.644C123.285 8.306 122.778 8.137 122.12 8.137C121.608 8.137 121.145 8.26267 120.729 8.514C120.321 8.75667 120.001 9.099 119.767 9.541C119.541 9.983 119.429 10.4857 119.429 11.049C119.429 11.6557 119.606 12.1323 119.962 12.479C120.326 12.817 120.833 12.986 121.483 12.986ZM133.939 5.992L132.561 12.908H134.316L134.108 14H129.272L129.48 12.908H131.261L132.652 5.992H130.884L131.092 4.9H135.928L135.72 5.992H133.939ZM139.868 5.992L138.49 12.908H140.245L140.037 14H135.201L135.409 12.908H137.19L138.581 5.992H136.813L137.021 4.9H141.857L141.649 5.992H139.868ZM145.796 5.992L144.418 12.908H146.173L145.965 14H141.129L141.337 12.908H143.118L144.509 5.992H142.741L142.949 4.9H147.785L147.577 5.992H145.796Z" fill="black"/>
<path d="M43.4768 85C56.5079 79.7189 58.9012 71.8164 57.3517 63.5306C54.6487 49.0837 30.6938 45.2906 27.3602 28.4358C24.4825 13.8826 39.0647 -0.655483 63.3691 7.21316C42.9283 8.86217 40.3238 24.7389 44.1665 31.4316C52.0731 45.2028 73.3669 43.3011 74.9327 63.1614C76.3934 81.6918 53.7089 85 43.4768 85Z" fill="#FF7438"/>
<path d="M74.108 33.6421C76.9219 31.2402 78.6601 27.9449 78.6601 24.3073C78.6601 16.9579 71.5725 11 62.8303 11C54.0881 11 47.0001 16.9579 47.0001 24.3073C47.0001 31.6566 54.0876 37.6141 62.8303 37.6141C64.4611 37.6152 66.0848 37.4017 67.6591 36.9793C68.4787 37.524 69.3698 37.9542 70.3075 38.2577C73.8965 39.4426 78.1233 39.1363 82.0001 37.8536C79.0159 37.2328 76.2756 35.7705 74.108 33.6421V33.6421Z" fill="#FF7438"/>
<path d="M31.5514 51.0005C20.81 51.0005 12.104 58.2342 12.104 67.1571C12.104 71.5751 14.2411 75.5773 17.6993 78.494C15.0351 81.0786 11.6674 82.8546 8 83.6088C12.7635 85.1663 17.9587 85.5374 22.3662 84.0998C23.5182 83.7315 24.6129 83.2096 25.6197 82.5485C27.554 83.0609 29.5491 83.3193 31.5527 83.317C42.294 83.317 51 76.0833 51 67.16C51 58.2367 42.2927 51.0005 31.5514 51.0005Z" fill="#FF7438"/>
</svg>
