<svg width="275" height="101" viewBox="0 0 275 101" fill="none"
    xmlns="http://www.w3.org/2000/svg">
    <path d="M106.766 51.3744C105.039 51.3744 103.365 51.1456 101.742 50.688C100.141 50.2096 98.8512 49.596 97.8736 48.8472L99.5896 45.0408C100.526 45.7272 101.638 46.2784 102.928 46.6944C104.218 47.1104 105.507 47.3184 106.797 47.3184C108.232 47.3184 109.293 47.1104 109.979 46.6944C110.666 46.2576 111.009 45.6856 111.009 44.9784C111.009 44.4584 110.801 44.032 110.385 43.6992C109.99 43.3456 109.47 43.0648 108.825 42.8568C108.201 42.6488 107.348 42.42 106.266 42.1704C104.602 41.7752 103.24 41.38 102.179 40.9848C101.118 40.5896 100.203 39.9552 99.4336 39.0816C98.6848 38.208 98.3104 37.0432 98.3104 35.5872C98.3104 34.3184 98.6536 33.1744 99.34 32.1552C100.026 31.1152 101.056 30.2936 102.429 29.6904C103.822 29.0872 105.518 28.7856 107.514 28.7856C108.908 28.7856 110.27 28.952 111.602 29.2848C112.933 29.6176 114.098 30.096 115.096 30.72L113.536 34.5576C111.518 33.4136 109.501 32.8416 107.483 32.8416C106.069 32.8416 105.018 33.0704 104.332 33.528C103.666 33.9856 103.334 34.5888 103.334 35.3376C103.334 36.0864 103.718 36.648 104.488 37.0224C105.278 37.376 106.474 37.7296 108.076 38.0832C109.74 38.4784 111.102 38.8736 112.163 39.2688C113.224 39.664 114.129 40.288 114.878 41.1408C115.647 41.9936 116.032 43.148 116.032 44.604C116.032 45.852 115.678 46.996 114.971 48.036C114.285 49.0552 113.245 49.8664 111.851 50.4696C110.458 51.0728 108.762 51.3744 106.766 51.3744ZM127.598 47.3496C128.471 47.3496 129.241 47.2248 129.906 46.9752C130.593 46.7048 131.227 46.2888 131.81 45.7272L134.399 48.5352C132.818 50.3448 130.51 51.2496 127.473 51.2496C125.58 51.2496 123.906 50.8856 122.45 50.1576C120.994 49.4088 119.87 48.3792 119.08 47.0688C118.29 45.7584 117.894 44.2712 117.894 42.6072C117.894 40.964 118.279 39.4872 119.049 38.1768C119.839 36.8456 120.91 35.816 122.262 35.088C123.635 34.3392 125.174 33.9648 126.88 33.9648C128.482 33.9648 129.938 34.308 131.248 34.9944C132.558 35.66 133.598 36.6376 134.368 37.9272C135.158 39.196 135.554 40.704 135.554 42.4512L123.136 44.8536C123.49 45.6856 124.041 46.3096 124.79 46.7256C125.559 47.1416 126.495 47.3496 127.598 47.3496ZM126.88 37.6464C125.653 37.6464 124.654 38.0416 123.885 38.832C123.115 39.6224 122.71 40.7144 122.668 42.108L130.842 40.5168C130.614 39.6432 130.146 38.9464 129.438 38.4264C128.731 37.9064 127.878 37.6464 126.88 37.6464ZM160.322 33.9648C162.423 33.9648 164.087 34.5888 165.314 35.8368C166.562 37.064 167.186 38.9152 167.186 41.3904V51H162.319V42.1392C162.319 40.808 162.038 39.82 161.477 39.1752C160.936 38.5096 160.156 38.1768 159.137 38.1768C157.993 38.1768 157.088 38.5512 156.422 39.3C155.757 40.028 155.424 41.12 155.424 42.576V51H150.557V42.1392C150.557 39.4976 149.496 38.1768 147.374 38.1768C146.251 38.1768 145.357 38.5512 144.691 39.3C144.025 40.028 143.693 41.12 143.693 42.576V51H138.825V34.2144H143.474V36.1488C144.098 35.4416 144.857 34.9008 145.752 34.5264C146.667 34.152 147.665 33.9648 148.747 33.9648C149.933 33.9648 151.004 34.204 151.961 34.6824C152.917 35.14 153.687 35.816 154.269 36.7104C154.956 35.8368 155.819 35.1608 156.859 34.6824C157.92 34.204 159.074 33.9648 160.322 33.9648ZM171.549 34.2144H176.416V51H171.549V34.2144ZM173.982 31.8744C173.088 31.8744 172.36 31.6144 171.798 31.0944C171.237 30.5744 170.956 29.9296 170.956 29.16C170.956 28.3904 171.237 27.7456 171.798 27.2256C172.36 26.7056 173.088 26.4456 173.982 26.4456C174.877 26.4456 175.605 26.6952 176.166 27.1944C176.728 27.6936 177.009 28.3176 177.009 29.0664C177.009 29.8776 176.728 30.5536 176.166 31.0944C175.605 31.6144 174.877 31.8744 173.982 31.8744ZM188.92 51.2496C187.152 51.2496 185.561 50.8856 184.147 50.1576C182.753 49.4088 181.661 48.3792 180.871 47.0688C180.08 45.7584 179.685 44.2712 179.685 42.6072C179.685 40.9432 180.08 39.456 180.871 38.1456C181.661 36.8352 182.753 35.816 184.147 35.088C185.561 34.3392 187.152 33.9648 188.92 33.9648C190.688 33.9648 192.269 34.3392 193.663 35.088C195.056 35.816 196.148 36.8352 196.939 38.1456C197.729 39.456 198.124 40.9432 198.124 42.6072C198.124 44.2712 197.729 45.7584 196.939 47.0688C196.148 48.3792 195.056 49.4088 193.663 50.1576C192.269 50.8856 190.688 51.2496 188.92 51.2496ZM188.92 47.256C190.168 47.256 191.188 46.84 191.978 46.008C192.789 45.1552 193.195 44.0216 193.195 42.6072C193.195 41.1928 192.789 40.0696 191.978 39.2376C191.188 38.3848 190.168 37.9584 188.92 37.9584C187.672 37.9584 186.643 38.3848 185.832 39.2376C185.02 40.0696 184.615 41.1928 184.615 42.6072C184.615 44.0216 185.02 45.1552 185.832 46.008C186.643 46.84 187.672 47.256 188.92 47.256ZM211.486 50.1888C211.008 50.5424 210.415 50.8128 209.708 51C209.022 51.1664 208.304 51.2496 207.555 51.2496C205.538 51.2496 203.988 50.74 202.906 49.7208C201.825 48.7016 201.284 47.204 201.284 45.228V30.5016H206.151V34.5888H210.301V38.3328H206.151V45.1656C206.151 45.8728 206.328 46.424 206.682 46.8192C207.035 47.1936 207.545 47.3808 208.21 47.3808C208.959 47.3808 209.625 47.1728 210.207 46.7568L211.486 50.1888ZM214.235 34.2144H219.103V51H214.235V34.2144ZM216.669 31.8744C215.775 31.8744 215.047 31.6144 214.485 31.0944C213.923 30.5744 213.643 29.9296 213.643 29.16C213.643 28.3904 213.923 27.7456 214.485 27.2256C215.047 26.7056 215.775 26.4456 216.669 26.4456C217.563 26.4456 218.291 26.6952 218.853 27.1944C219.415 27.6936 219.695 28.3176 219.695 29.0664C219.695 29.8776 219.415 30.5536 218.853 31.0944C218.291 31.6144 217.563 31.8744 216.669 31.8744ZM231.732 51.2496C229.943 51.2496 228.331 50.8856 226.896 50.1576C225.481 49.4088 224.369 48.3792 223.557 47.0688C222.767 45.7584 222.372 44.2712 222.372 42.6072C222.372 40.9432 222.767 39.456 223.557 38.1456C224.369 36.8352 225.481 35.816 226.896 35.088C228.331 34.3392 229.943 33.9648 231.732 33.9648C233.5 33.9648 235.039 34.3392 236.349 35.088C237.681 35.816 238.648 36.8664 239.251 38.2392L235.476 40.2672C234.602 38.728 233.344 37.9584 231.701 37.9584C230.432 37.9584 229.381 38.3744 228.549 39.2064C227.717 40.0384 227.301 41.172 227.301 42.6072C227.301 44.0424 227.717 45.176 228.549 46.008C229.381 46.84 230.432 47.256 231.701 47.256C233.365 47.256 234.623 46.4864 235.476 44.9472L239.251 47.0064C238.648 48.3376 237.681 49.3776 236.349 50.1264C235.039 50.8752 233.5 51.2496 231.732 51.2496ZM247.701 51.2496C246.307 51.2496 244.945 51.0832 243.613 50.7504C242.282 50.3968 241.221 49.96 240.431 49.44L242.053 45.9456C242.802 46.424 243.707 46.8192 244.768 47.1312C245.829 47.4224 246.869 47.568 247.888 47.568C249.947 47.568 250.977 47.0584 250.977 46.0392C250.977 45.5608 250.696 45.2176 250.134 45.0096C249.573 44.8016 248.709 44.6248 247.545 44.4792C246.172 44.2712 245.038 44.032 244.144 43.7616C243.249 43.4912 242.469 43.0128 241.804 42.3264C241.159 41.64 240.837 40.6624 240.837 39.3936C240.837 38.3328 241.138 37.3968 241.741 36.5856C242.365 35.7536 243.26 35.1088 244.425 34.6512C245.61 34.1936 247.004 33.9648 248.605 33.9648C249.791 33.9648 250.966 34.1 252.131 34.3704C253.317 34.62 254.294 34.9736 255.064 35.4312L253.441 38.8944C251.965 38.0624 250.353 37.6464 248.605 37.6464C247.565 37.6464 246.785 37.792 246.265 38.0832C245.745 38.3744 245.485 38.7488 245.485 39.2064C245.485 39.7264 245.766 40.0904 246.328 40.2984C246.889 40.5064 247.784 40.704 249.011 40.8912C250.384 41.12 251.507 41.3696 252.381 41.64C253.254 41.8896 254.013 42.3576 254.658 43.044C255.303 43.7304 255.625 44.6872 255.625 45.9144C255.625 46.9544 255.313 47.88 254.689 48.6912C254.065 49.5024 253.15 50.1368 251.944 50.5944C250.758 51.0312 249.344 51.2496 247.701 51.2496ZM111.165 62.7856C113.765 62.7856 115.793 63.6072 117.249 65.2504C118.705 66.8728 119.433 69.192 119.433 72.208V85H114.378V72.364C114.378 70.6168 113.962 69.3064 113.13 68.4328C112.319 67.5384 111.186 67.0912 109.73 67.0912C108.19 67.0912 106.953 67.5696 106.017 68.5264C105.102 69.4624 104.644 70.856 104.644 72.7072V85H99.5896V63.16H104.488V65.812C105.237 64.8136 106.173 64.0648 107.296 63.5656C108.419 63.0456 109.709 62.7856 111.165 62.7856ZM124.422 63.16H129.476V80.8816H140.427V85H124.422V63.16ZM152.705 63.16C154.639 63.16 156.314 63.4824 157.728 64.1272C159.163 64.772 160.266 65.6872 161.035 66.8728C161.805 68.0584 162.19 69.4624 162.19 71.0848C162.19 72.6864 161.805 74.0904 161.035 75.2968C160.266 76.4824 159.163 77.3976 157.728 78.0424C156.314 78.6664 154.639 78.9784 152.705 78.9784H148.306V85H143.251V63.16H152.705ZM152.424 74.86C153.943 74.86 155.097 74.5376 155.887 73.8928C156.678 73.2272 157.073 72.2912 157.073 71.0848C157.073 69.8576 156.678 68.9216 155.887 68.2768C155.097 67.6112 153.943 67.2784 152.424 67.2784H148.306V74.86H152.424ZM190.851 69.2752C188.979 68.1936 186.972 67.4968 184.829 67.1848V85H179.775V67.1848C177.632 67.4968 175.615 68.1936 173.722 69.2752L172.006 65.5C173.504 64.6056 175.126 63.9296 176.873 63.472C178.62 63.0144 180.42 62.7856 182.271 62.7856C184.143 62.7856 185.952 63.0144 187.7 63.472C189.468 63.9296 191.09 64.6056 192.567 65.5L190.851 69.2752ZM201.241 81.3496C202.114 81.3496 202.884 81.2248 203.549 80.9752C204.236 80.7048 204.87 80.2888 205.453 79.7272L208.042 82.5352C206.461 84.3448 204.153 85.2496 201.116 85.2496C199.223 85.2496 197.549 84.8856 196.093 84.1576C194.637 83.4088 193.513 82.3792 192.723 81.0688C191.933 79.7584 191.537 78.2712 191.537 76.6072C191.537 74.964 191.922 73.4872 192.692 72.1768C193.482 70.8456 194.553 69.816 195.905 69.088C197.278 68.3392 198.817 67.9648 200.523 67.9648C202.125 67.9648 203.581 68.308 204.891 68.9944C206.201 69.66 207.241 70.6376 208.011 71.9272C208.801 73.196 209.197 74.704 209.197 76.4512L196.779 78.8536C197.133 79.6856 197.684 80.3096 198.433 80.7256C199.202 81.1416 200.138 81.3496 201.241 81.3496ZM200.523 71.6464C199.296 71.6464 198.297 72.0416 197.528 72.832C196.758 73.6224 196.353 74.7144 196.311 76.108L204.485 74.5168C204.257 73.6432 203.789 72.9464 203.081 72.4264C202.374 71.9064 201.521 71.6464 200.523 71.6464ZM229.503 68.2144V85H224.855V83.0656C223.648 84.5216 221.901 85.2496 219.613 85.2496C218.032 85.2496 216.597 84.896 215.307 84.1888C214.039 83.4816 213.04 82.4728 212.312 81.1624C211.584 79.852 211.22 78.3336 211.22 76.6072C211.22 74.8808 211.584 73.3624 212.312 72.052C213.04 70.7416 214.039 69.7328 215.307 69.0256C216.597 68.3184 218.032 67.9648 219.613 67.9648C221.755 67.9648 223.43 68.6408 224.636 69.9928V68.2144H229.503ZM220.455 81.256C221.683 81.256 222.702 80.84 223.513 80.008C224.324 79.1552 224.73 78.0216 224.73 76.6072C224.73 75.1928 224.324 74.0696 223.513 73.2376C222.702 72.3848 221.683 71.9584 220.455 71.9584C219.207 71.9584 218.178 72.3848 217.367 73.2376C216.555 74.0696 216.15 75.1928 216.15 76.6072C216.15 78.0216 216.555 79.1552 217.367 80.008C218.178 80.84 219.207 81.256 220.455 81.256ZM255.506 67.9648C257.607 67.9648 259.271 68.5888 260.498 69.8368C261.746 71.064 262.37 72.9152 262.37 75.3904V85H257.503V76.1392C257.503 74.808 257.222 73.82 256.661 73.1752C256.12 72.5096 255.34 72.1768 254.321 72.1768C253.177 72.1768 252.272 72.5512 251.606 73.3C250.941 74.028 250.608 75.12 250.608 76.576V85H245.741V76.1392C245.741 73.4976 244.68 72.1768 242.558 72.1768C241.435 72.1768 240.541 72.5512 239.875 73.3C239.21 74.028 238.877 75.12 238.877 76.576V85H234.01V68.2144H238.658V70.1488C239.282 69.4416 240.042 68.9008 240.936 68.5264C241.851 68.152 242.85 67.9648 243.931 67.9648C245.117 67.9648 246.188 68.204 247.145 68.6824C248.102 69.14 248.871 69.816 249.454 70.7104C250.14 69.8368 251.003 69.1608 252.043 68.6824C253.104 68.204 254.258 67.9648 255.506 67.9648Z" fill="black"/>
    <path d="M98.365 4.9H99.665V12.869H104.592V14H98.365V4.9ZM112.313 7.11V14H111.117V12.908C110.84 13.2893 110.489 13.5797 110.064 13.779C109.639 13.9783 109.171 14.078 108.66 14.078C107.993 14.078 107.395 13.9307 106.866 13.636C106.337 13.3413 105.921 12.9297 105.618 12.401C105.323 11.8637 105.176 11.2483 105.176 10.555C105.176 9.86167 105.323 9.25067 105.618 8.722C105.921 8.19333 106.337 7.78167 106.866 7.487C107.395 7.19233 107.993 7.045 108.66 7.045C109.154 7.045 109.609 7.14033 110.025 7.331C110.441 7.513 110.788 7.786 111.065 8.15V7.11H112.313ZM108.764 12.986C109.197 12.986 109.592 12.8863 109.947 12.687C110.302 12.479 110.58 12.193 110.779 11.829C110.978 11.4563 111.078 11.0317 111.078 10.555C111.078 10.0783 110.978 9.658 110.779 9.294C110.58 8.92133 110.302 8.63533 109.947 8.436C109.592 8.23667 109.197 8.137 108.764 8.137C108.322 8.137 107.923 8.23667 107.568 8.436C107.221 8.63533 106.944 8.92133 106.736 9.294C106.537 9.658 106.437 10.0783 106.437 10.555C106.437 11.0317 106.537 11.4563 106.736 11.829C106.944 12.193 107.221 12.479 107.568 12.687C107.923 12.8863 108.322 12.986 108.764 12.986ZM118.327 7.045C118.995 7.045 119.593 7.19233 120.121 7.487C120.65 7.78167 121.062 8.19333 121.356 8.722C121.66 9.25067 121.811 9.86167 121.811 10.555C121.811 11.2483 121.66 11.8637 121.356 12.401C121.062 12.9297 120.65 13.3413 120.121 13.636C119.593 13.9307 118.995 14.078 118.327 14.078C117.816 14.078 117.348 13.9783 116.923 13.779C116.499 13.5797 116.148 13.2893 115.87 12.908V14H114.674V4.354H115.922V8.15C116.2 7.786 116.546 7.513 116.962 7.331C117.378 7.14033 117.833 7.045 118.327 7.045ZM118.223 12.986C118.665 12.986 119.06 12.8863 119.406 12.687C119.762 12.479 120.039 12.193 120.238 11.829C120.446 11.4563 120.55 11.0317 120.55 10.555C120.55 10.0783 120.446 9.658 120.238 9.294C120.039 8.92133 119.762 8.63533 119.406 8.436C119.06 8.23667 118.665 8.137 118.223 8.137C117.79 8.137 117.396 8.23667 117.04 8.436C116.685 8.63533 116.408 8.92133 116.208 9.294C116.009 9.658 115.909 10.0783 115.909 10.555C115.909 11.0317 116.009 11.4563 116.208 11.829C116.408 12.193 116.685 12.479 117.04 12.687C117.396 12.8863 117.79 12.986 118.223 12.986ZM129.458 6.031V12.869H131.213V14H126.403V12.869H128.158V6.031H126.403V4.9H131.213V6.031H129.458ZM135.386 6.031V12.869H137.141V14H132.331V12.869H134.086V6.031H132.331V4.9H137.141V6.031H135.386ZM141.315 6.031V12.869H143.07V14H138.26V12.869H140.015V6.031H138.26V4.9H143.07V6.031H141.315Z" fill="black"/>
    <path d="M43.4768 85C56.5079 79.7189 58.9012 71.8164 57.3517 63.5306C54.6487 49.0837 30.6938 45.2906 27.3602 28.4358C24.4825 13.8826 39.0647 -0.655483 63.3691 7.21316C42.9283 8.86217 40.3238 24.7389 44.1665 31.4316C52.0731 45.2028 73.3669 43.3011 74.9327 63.1614C76.3934 81.6918 53.7089 85 43.4768 85Z" fill="#FF7438"/>
    <path d="M74.108 33.6421C76.9219 31.2402 78.6601 27.9449 78.6601 24.3073C78.6601 16.9579 71.5725 11 62.8303 11C54.0881 11 47.0001 16.9579 47.0001 24.3073C47.0001 31.6566 54.0876 37.6141 62.8303 37.6141C64.4611 37.6152 66.0848 37.4017 67.6591 36.9793C68.4787 37.524 69.3698 37.9542 70.3075 38.2577C73.8965 39.4426 78.1233 39.1363 82.0001 37.8536C79.0159 37.2328 76.2756 35.7705 74.108 33.6421V33.6421Z" fill="#FF7438"/>
    <path d="M31.5514 51.0005C20.81 51.0005 12.104 58.2342 12.104 67.1571C12.104 71.5751 14.2411 75.5773 17.6993 78.494C15.0351 81.0786 11.6674 82.8546 8 83.6088C12.7635 85.1663 17.9587 85.5374 22.3662 84.0998C23.5182 83.7315 24.6129 83.2096 25.6197 82.5485C27.554 83.0609 29.5491 83.3193 31.5527 83.317C42.294 83.317 51 76.0833 51 67.16C51 58.2367 42.2927 51.0005 31.5514 51.0005Z" fill="#FF7438"/>
</svg>
