<svg width="347" height="179" viewBox="0 0 347 179" fill="none" xmlns="http://www.w3.org/2000/svg">
<g clip-path="url(#clip0)">
<path d="M163.855 59.936L166.574 56.2612C167.416 56.9573 168.359 57.5216 169.371 57.9347C170.414 58.3844 171.537 58.6182 172.673 58.6219C173.538 58.6952 174.405 58.4967 175.152 58.0541C175.377 57.9071 175.562 57.708 175.692 57.4738C175.822 57.2397 175.893 56.9774 175.9 56.7096C175.894 56.4404 175.833 56.1753 175.72 55.931C175.607 55.6867 175.444 55.4684 175.243 55.2898C174.453 54.6563 173.564 54.1568 172.613 53.8109C171.093 53.2794 169.728 52.3814 168.639 51.1964C167.842 50.213 167.419 48.98 167.443 47.715C167.473 46.8687 167.671 46.0368 168.025 45.2675C168.378 44.4982 168.882 43.8069 169.505 43.2336C170.879 41.8194 173.011 41.1123 175.9 41.1123C178.241 41.121 180.53 41.7946 182.503 43.0545L180.113 46.8785C178.665 45.8789 176.94 45.357 175.181 45.386C174.367 45.3262 173.554 45.5311 172.866 45.9701C172.647 46.106 172.463 46.2922 172.331 46.5131C172.198 46.7341 172.12 46.9835 172.103 47.2406C172.115 47.4727 172.18 47.6989 172.291 47.9031C172.402 48.1072 172.557 48.2841 172.744 48.421C173.627 49.0295 174.587 49.5169 175.6 49.87C177.166 50.3895 178.572 51.3061 179.679 52.5306C180.504 53.5639 180.943 54.8532 180.918 56.1755C180.913 57.0727 180.711 57.9577 180.326 58.7683C179.942 59.5788 179.384 60.2951 178.692 60.8665C177.208 62.2011 174.971 62.8684 171.984 62.8684C170.512 62.869 169.053 62.5955 167.681 62.0618C166.312 61.5376 165.023 60.8218 163.855 59.936Z" fill="black"/>
<path d="M173.496 24.9H174.796L173.197 32.869H178.137L177.916 34H171.676L173.496 24.9ZM186.859 33.025C187.093 33.025 187.305 32.986 187.496 32.908L187.366 33.922C187.106 34.026 186.798 34.078 186.443 34.078C186.001 34.078 185.637 33.9783 185.351 33.779C185.065 33.571 184.887 33.2893 184.818 32.934C184.497 33.3067 184.112 33.5927 183.661 33.792C183.219 33.9827 182.721 34.078 182.166 34.078C181.577 34.078 181.052 33.961 180.593 33.727C180.134 33.4843 179.774 33.1377 179.514 32.687C179.254 32.2363 179.124 31.7077 179.124 31.101C179.124 30.321 179.293 29.6233 179.631 29.008C179.969 28.3927 180.433 27.9117 181.022 27.565C181.62 27.2183 182.287 27.045 183.024 27.045C183.613 27.045 184.116 27.149 184.532 27.357C184.957 27.565 185.282 27.8727 185.507 28.28L185.741 27.11H186.989L186.04 31.894C186.014 32.024 186.001 32.1367 186.001 32.232C186.001 32.492 186.075 32.6913 186.222 32.83C186.369 32.96 186.582 33.025 186.859 33.025ZM182.439 32.986C182.95 32.986 183.41 32.8647 183.817 32.622C184.233 32.3707 184.554 32.024 184.779 31.582C185.013 31.14 185.13 30.6373 185.13 30.074C185.13 29.4587 184.952 28.982 184.597 28.644C184.242 28.306 183.735 28.137 183.076 28.137C182.565 28.137 182.105 28.2627 181.698 28.514C181.291 28.7567 180.97 29.099 180.736 29.541C180.502 29.983 180.385 30.4857 180.385 31.049C180.385 31.6557 180.563 32.1323 180.918 32.479C181.282 32.817 181.789 32.986 182.439 32.986ZM193.393 27.045C193.982 27.045 194.506 27.1663 194.966 27.409C195.425 27.643 195.785 27.9853 196.045 28.436C196.305 28.878 196.435 29.4023 196.435 30.009C196.435 30.789 196.266 31.4867 195.928 32.102C195.59 32.7173 195.122 33.2027 194.524 33.558C193.934 33.9047 193.271 34.078 192.535 34.078C191.928 34.078 191.408 33.9653 190.975 33.74C190.55 33.5147 190.229 33.1853 190.013 32.752L189.753 34H188.57L190.494 24.354H191.742L191.027 27.903C191.668 27.331 192.457 27.045 193.393 27.045ZM192.483 32.986C192.994 32.986 193.453 32.8647 193.861 32.622C194.268 32.3707 194.589 32.024 194.823 31.582C195.057 31.14 195.174 30.6373 195.174 30.074C195.174 29.4587 194.996 28.982 194.641 28.644C194.285 28.306 193.778 28.137 193.12 28.137C192.608 28.137 192.145 28.2627 191.729 28.514C191.321 28.7567 191.001 29.099 190.767 29.541C190.541 29.983 190.429 30.4857 190.429 31.049C190.429 31.6557 190.606 32.1323 190.962 32.479C191.326 32.817 191.833 32.986 192.483 32.986ZM204.939 25.992L203.561 32.908H205.316L205.108 34H200.272L200.48 32.908H202.261L203.652 25.992H201.884L202.092 24.9H206.928L206.72 25.992H204.939ZM210.868 25.992L209.49 32.908H211.245L211.037 34H206.201L206.409 32.908H208.19L209.581 25.992H207.813L208.021 24.9H212.857L212.649 25.992H210.868ZM216.796 25.992L215.418 32.908H217.173L216.965 34H212.129L212.337 32.908H214.118L215.509 25.992H213.741L213.949 24.9H218.785L218.577 25.992H216.796Z" fill="black"/>
<path d="M183.397 56.2016C183.374 54.4664 183.779 52.7523 184.578 51.2115C185.323 49.7638 186.435 48.5377 187.804 47.6561C189.172 46.7784 190.766 46.3211 192.391 46.3407C193.207 46.3018 194.022 46.4315 194.786 46.7218C195.549 47.0121 196.245 47.4567 196.829 48.0279C197.396 48.6377 197.835 49.3553 198.12 50.138C198.405 50.9208 198.53 51.7527 198.487 52.5846C198.477 53.1212 198.422 53.6561 198.323 54.1835C198.213 54.8112 198.088 55.384 197.949 55.9018H187.729C187.79 57.9926 188.976 59.0385 191.286 59.0393C192.773 58.9927 194.228 58.5923 195.529 57.8713L196.574 61.1879C194.754 62.2887 192.666 62.8675 190.539 62.8608C188.288 62.8608 186.535 62.2183 185.283 60.9335C184.667 60.3118 184.183 59.5724 183.859 58.7594C183.535 57.9464 183.378 57.0766 183.397 56.2016V56.2016ZM192.032 49.8968C191.179 49.9035 190.358 50.2286 189.732 50.8085C189.013 51.4486 188.477 52.2682 188.178 53.1835H194.334C194.334 53.0641 194.338 52.9499 194.348 52.8403C194.359 52.7306 194.363 52.6261 194.363 52.5268C194.363 50.7735 193.586 49.8968 192.032 49.8968Z" fill="black"/>
<path d="M200.1 62.4467L203.446 46.7293H207.869L207.421 48.8506C207.943 48.0718 208.651 47.4348 209.48 46.9967C210.309 46.5587 211.234 46.3332 212.172 46.3406C213.112 46.274 214.046 46.5397 214.811 47.0914C215.575 47.6432 216.122 48.4458 216.355 49.3594C216.953 48.4223 217.779 47.6532 218.757 47.1249C219.735 46.5967 220.832 46.3267 221.943 46.3406C222.573 46.3133 223.202 46.4189 223.789 46.6507C224.376 46.8825 224.908 47.2351 225.349 47.6858C226.243 48.6829 226.705 49.994 226.634 51.3314C226.635 51.9432 226.575 52.5536 226.455 53.1536L224.483 62.4467H220.06L221.853 54.0199C221.94 53.5969 221.99 53.1672 222.003 52.7357C222.003 51.2613 221.325 50.5244 219.971 50.5248C219.535 50.5383 219.106 50.6376 218.709 50.8169C218.311 50.9963 217.953 51.2523 217.655 51.5702C216.897 52.3251 216.391 53.2955 216.206 54.3489L214.471 62.4467H210.079L211.875 54.0199C211.962 53.5969 212.012 53.1673 212.025 52.7357C212.025 51.2613 211.348 50.5244 209.994 50.5248C209.561 50.5367 209.135 50.6338 208.74 50.8105C208.345 50.9872 207.989 51.2401 207.692 51.5547C206.941 52.3064 206.44 53.2718 206.258 54.319L204.525 62.4467H200.1Z" fill="black"/>
<path d="M228.816 62.4471L232.162 46.7298H236.585L233.238 62.4471H228.816ZM232.521 42.188C232.513 41.8319 232.58 41.4781 232.716 41.149C232.852 40.8199 233.056 40.5227 233.313 40.2763C233.579 40.0175 233.895 39.8151 234.242 39.6813C234.588 39.5475 234.958 39.485 235.33 39.4976C235.689 39.4808 236.049 39.5352 236.387 39.6577C236.725 39.7802 237.036 39.9684 237.302 40.2114C237.547 40.4459 237.74 40.7293 237.869 41.0434C237.998 41.3574 238.059 41.695 238.049 42.0342C238.054 42.3869 237.984 42.7367 237.845 43.0609C237.706 43.3851 237.501 43.6765 237.242 43.9161C236.972 44.1744 236.653 44.3764 236.305 44.5101C235.956 44.6438 235.584 44.7066 235.21 44.6948C234.854 44.7125 234.497 44.6597 234.161 44.5392C233.825 44.4187 233.516 44.2329 233.252 43.9926C233.011 43.7598 232.821 43.4789 232.695 43.168C232.569 42.8571 232.51 42.5233 232.521 42.188V42.188Z" fill="black"/>
<path d="M238.168 56.2017C238.152 54.4944 238.563 52.8101 239.363 51.3018C240.134 49.8361 241.271 48.5954 242.665 47.7009C244.105 46.7832 245.784 46.3093 247.491 46.3382C248.374 46.2995 249.256 46.4428 250.081 46.7595C250.907 47.0761 251.658 47.5591 252.289 48.1786C252.919 48.798 253.416 49.5406 253.747 50.3601C254.078 51.1796 254.237 52.0586 254.214 52.9422C254.237 54.6792 253.826 56.3944 253.019 57.9324C252.253 59.3923 251.12 60.6279 249.732 61.5176C248.294 62.4266 246.622 62.894 244.921 62.8621C244.032 62.8987 243.145 62.7521 242.316 62.4313C241.486 62.1106 240.731 61.6226 240.097 60.9977C239.464 60.3729 238.966 59.6244 238.634 58.7989C238.302 57.9734 238.143 57.0885 238.168 56.1991V56.2017ZM242.74 55.8124C242.74 57.8841 243.637 58.92 245.429 58.92C246.018 58.899 246.593 58.7359 247.106 58.4447C247.618 58.1534 248.053 57.7425 248.372 57.2471C249.219 56.1312 249.666 54.7632 249.642 53.3627C249.642 51.3109 248.746 50.2847 246.953 50.2843C246.373 50.305 245.805 50.462 245.297 50.7424C244.788 51.0229 244.352 51.419 244.025 51.8988C243.155 53.0145 242.7 54.3986 242.74 55.813V55.8124Z" fill="black"/>
<path d="M257.171 58.5618C257.188 57.8592 257.268 57.1595 257.409 56.471L258.663 50.6152H256.511L257.348 46.7308H259.47L260.221 43.2637H264.643L263.896 46.7295H267.93L267.092 50.6152H263.088L261.833 56.4723C261.775 56.7677 261.746 57.0676 261.743 57.3684C261.743 58.3241 262.34 58.8021 263.535 58.8025C264.09 58.7958 264.641 58.7255 265.18 58.5929L264.821 62.537C263.94 62.752 263.038 62.8624 262.131 62.866C260.796 62.9593 259.475 62.5371 258.441 61.6863C258.018 61.2869 257.685 60.8013 257.466 60.2622C257.247 59.7231 257.146 59.1432 257.171 58.5618V58.5618Z" fill="black"/>
<path d="M267.659 62.4466L271.006 46.7293H275.429L272.082 62.4466H267.659ZM271.365 42.1876C271.357 41.8314 271.423 41.4775 271.56 41.1484C271.696 40.8193 271.9 40.5222 272.157 40.2759C272.423 40.017 272.739 39.8145 273.086 39.6807C273.432 39.5469 273.802 39.4845 274.173 39.4972C274.533 39.4802 274.892 39.5346 275.231 39.6571C275.569 39.7796 275.88 39.9678 276.145 40.211C276.391 40.4454 276.584 40.7288 276.713 41.0429C276.842 41.3569 276.903 41.6945 276.892 42.0338C276.897 42.3865 276.828 42.7362 276.689 43.0604C276.55 43.3846 276.345 43.676 276.086 43.9156C275.816 44.174 275.497 44.3759 275.148 44.5096C274.799 44.6433 274.427 44.7061 274.054 44.6943C273.698 44.7126 273.341 44.6603 273.005 44.5405C272.669 44.4207 272.36 44.2357 272.096 43.9961C271.854 43.7629 271.664 43.4813 271.538 43.1697C271.412 42.8581 271.353 42.5235 271.365 42.1876V42.1876Z" fill="black"/>
<path d="M277.042 56.1417C277.024 54.4408 277.43 52.7621 278.222 51.2567C278.975 49.8106 280.086 48.5817 281.449 47.6877C282.829 46.7866 284.447 46.3182 286.095 46.3425C287.137 46.2959 288.175 46.4809 289.136 46.8839C290.098 47.287 290.957 47.8981 291.654 48.6734L288.874 51.7233C288.521 51.318 288.085 50.9936 287.595 50.7719C287.105 50.5502 286.573 50.4365 286.036 50.4384C285.415 50.4294 284.802 50.5684 284.246 50.8437C283.69 51.1191 283.208 51.5229 282.839 52.0218C282.004 53.074 281.56 54.3838 281.584 55.7271C281.584 57.7603 282.55 58.7769 284.482 58.7769C285.114 58.7781 285.739 58.6509 286.32 58.4032C286.936 58.1375 287.513 57.791 288.038 57.3727L289.771 60.6893C288.103 62.1053 285.983 62.8788 283.795 62.8703C281.644 62.8703 279.981 62.2279 278.805 60.943C277.618 59.631 276.986 57.9099 277.042 56.1417V56.1417Z" fill="black"/>
<path d="M291.175 60.8929L293.177 57.3673C293.851 57.8986 294.595 58.3352 295.387 58.6652C296.197 59.0242 297.072 59.2127 297.957 59.2187C299.292 59.2187 299.96 58.8203 299.959 58.0234C299.952 57.8697 299.913 57.719 299.847 57.5805C299.78 57.4419 299.686 57.3182 299.57 57.2168C299.058 56.8143 298.482 56.5011 297.866 56.2901C296.659 55.908 295.573 55.2181 294.714 54.2882C294.096 53.54 293.763 52.5977 293.773 51.6277C293.781 50.9201 293.945 50.2229 294.252 49.5853C294.559 48.9477 295.002 48.3852 295.55 47.9373C296.736 46.8727 298.384 46.3397 300.496 46.3384C301.516 46.3284 302.532 46.4643 303.514 46.742C304.376 46.9867 305.202 47.3444 305.97 47.8056L304.237 51.0923C302.997 50.2978 301.556 49.8729 300.084 49.8672C299.574 49.8211 299.064 49.9475 298.635 50.2261C298.509 50.3045 298.404 50.4123 298.328 50.5403C298.253 50.6682 298.21 50.8125 298.202 50.9607C298.195 51.109 298.224 51.2568 298.286 51.3916C298.348 51.5264 298.442 51.6441 298.559 51.7348C299.009 52.0806 299.514 52.3485 300.052 52.5271C301.39 52.9103 302.606 53.6364 303.578 54.6335C304.258 55.4159 304.63 56.4198 304.624 57.4569C304.642 58.1925 304.496 58.923 304.196 59.595C303.896 60.267 303.45 60.8636 302.89 61.3413C301.735 62.3575 299.972 62.8654 297.602 62.8649C296.332 62.8758 295.069 62.6738 293.866 62.2673C292.897 61.9671 291.986 61.5022 291.175 60.8929V60.8929Z" fill="black"/>
<path d="M86.2077 142.446C106.389 134.362 110.096 122.265 107.696 109.582C103.51 87.4666 66.4101 81.6602 61.2472 55.8594C56.7904 33.5816 79.3744 11.3271 117.016 23.3722C85.3582 25.8965 81.3245 50.2002 87.2758 60.4453C99.5211 81.5258 132.5 78.6148 134.925 109.016C137.187 137.382 102.055 142.446 86.2077 142.446Z" fill="#FF7438"/>
<path d="M152.6 137.005L164.775 79.6411H172.375L191.908 113.063L199.018 79.8046H211.765L199.508 137.169H191.988L172.375 103.75L165.347 137.005H152.6Z" fill="black"/>
<path d="M214.133 137.005L226.308 79.8042H239.056L229.413 125.24H253.031L250.5 137.008L214.133 137.005Z" fill="black"/>
<path d="M260.302 137.005L272.478 79.8042H291.434C297.862 79.8042 302.915 81.5065 306.593 84.9111C308.367 86.4947 309.778 88.4425 310.73 90.6214C311.682 92.8003 312.152 95.159 312.109 97.5364C312.109 104.347 309.589 109.904 304.55 114.206C299.511 118.509 292.933 120.661 284.815 120.662H276.565L273.051 137.005H260.302ZM289.476 91.5709H282.693L279.016 108.897H286.289C289.993 108.897 292.948 107.93 295.155 105.996C296.217 105.101 297.066 103.98 297.638 102.715C298.211 101.449 298.493 100.072 298.465 98.683C298.465 93.9416 295.468 91.5709 289.476 91.5709V91.5709Z" fill="black"/>
<path d="M133.155 64.4344C137.438 60.7512 140.084 55.6981 140.084 50.1201C140.084 38.8504 129.296 29.7144 115.99 29.7144C102.683 29.7144 91.8949 38.8504 91.8949 50.1201C91.8949 61.3897 102.683 70.5251 115.99 70.5251C118.472 70.5268 120.943 70.1995 123.339 69.5518C124.587 70.387 125.943 71.0466 127.371 71.5121C132.833 73.3291 139.267 72.8593 145.167 70.8924C140.625 69.9404 136.454 67.6981 133.155 64.4344V64.4344Z" fill="#FF7438"/>
<path d="M67.902 89.8242C51.5938 89.8242 38.3757 101.021 38.3757 114.831C38.3757 121.67 41.6204 127.864 46.8709 132.379C42.8259 136.379 37.7128 139.128 32.1447 140.295C39.377 142.706 47.2648 143.28 53.9565 141.055C55.7054 140.485 57.3676 139.677 58.8962 138.654C61.833 139.447 64.862 139.847 67.904 139.844C84.2122 139.844 97.4302 128.647 97.4302 114.836C97.4302 101.024 84.2103 89.8242 67.902 89.8242Z" fill="#FF7438"/>
</g>
<defs>
<clipPath id="clip0">
<rect width="347" height="179" fill="white"/>
</clipPath>
</defs>
</svg>
