<svg width="15" height="10" viewBox="0 0 15 10" fill="none" xmlns="http://www.w3.org/2000/svg">
<path fill-rule="evenodd" clip-rule="evenodd" d="M3.67 10C4.18 10 4.65 9.71 4.87 9.26L6.29 6.42C6.43 6.14 6.5 5.84 6.5 5.53V1C6.5 0.45 6.05 0 5.5 0H1.5C0.95 0 0.5 0.45 0.5 1V5C0.5 5.55 0.95 6 1.5 6H3.5L2.47 8.06C2.02 8.95 2.67 10 3.67 10ZM11.67 10C12.18 10 12.65 9.71 12.87 9.26L14.29 6.42C14.43 6.14 14.5 5.84 14.5 5.53V1C14.5 0.45 14.05 0 13.5 0H9.5C8.95 0 8.5 0.45 8.5 1V5C8.5 5.55 8.95 6 9.5 6H11.5L10.47 8.06C10.02 8.95 10.67 10 11.67 10Z" fill="#969696"/>
</svg>
