<svg width="40" height="40" viewBox="0 0 40 40" fill="none" xmlns="http://www.w3.org/2000/svg">
<path d="M20 35.4167C19.6833 35.4167 19.3666 35.3 19.1166 35.05L8.99995 24.9334C8.51662 24.45 8.51662 23.65 8.99995 23.1667C9.48328 22.6834 10.2833 22.6834 10.7666 23.1667L20 32.4L29.2333 23.1667C29.7166 22.6834 30.5166 22.6834 31 23.1667C31.4833 23.65 31.4833 24.45 31 24.9334L20.8833 35.05C20.6333 35.3 20.3166 35.4167 20 35.4167Z" fill="white"/>
<path d="M20 35.1334C19.3167 35.1334 18.75 34.5667 18.75 33.8834V5.83337C18.75 5.15004 19.3167 4.58337 20 4.58337C20.6833 4.58337 21.25 5.15004 21.25 5.83337V33.8834C21.25 34.5667 20.6833 35.1334 20 35.1334Z" fill="white"/>
</svg>

