<svg width="276" height="99" viewBox="0 0 276 99" fill="none" xmlns="http://www.w3.org/2000/svg">
<path d="M107.766 49.3744C106.039 49.3744 104.365 49.1456 102.742 48.688C101.141 48.2096 99.8512 47.596 98.8736 46.8472L100.59 43.0408C101.526 43.7272 102.638 44.2784 103.928 44.6944C105.218 45.1104 106.507 45.3184 107.797 45.3184C109.232 45.3184 110.293 45.1104 110.979 44.6944C111.666 44.2576 112.009 43.6856 112.009 42.9784C112.009 42.4584 111.801 42.032 111.385 41.6992C110.99 41.3456 110.47 41.0648 109.825 40.8568C109.201 40.6488 108.348 40.42 107.266 40.1704C105.602 39.7752 104.24 39.38 103.179 38.9848C102.118 38.5896 101.203 37.9552 100.434 37.0816C99.6848 36.208 99.3104 35.0432 99.3104 33.5872C99.3104 32.3184 99.6536 31.1744 100.34 30.1552C101.026 29.1152 102.056 28.2936 103.429 27.6904C104.822 27.0872 106.518 26.7856 108.514 26.7856C109.908 26.7856 111.27 26.952 112.602 27.2848C113.933 27.6176 115.098 28.096 116.096 28.72L114.536 32.5576C112.518 31.4136 110.501 30.8416 108.483 30.8416C107.069 30.8416 106.018 31.0704 105.332 31.528C104.666 31.9856 104.334 32.5888 104.334 33.3376C104.334 34.0864 104.718 34.648 105.488 35.0224C106.278 35.376 107.474 35.7296 109.076 36.0832C110.74 36.4784 112.102 36.8736 113.163 37.2688C114.224 37.664 115.129 38.288 115.878 39.1408C116.647 39.9936 117.032 41.148 117.032 42.604C117.032 43.852 116.678 44.996 115.971 46.036C115.285 47.0552 114.245 47.8664 112.851 48.4696C111.458 49.0728 109.762 49.3744 107.766 49.3744ZM128.598 45.3496C129.471 45.3496 130.241 45.2248 130.906 44.9752C131.593 44.7048 132.227 44.2888 132.81 43.7272L135.399 46.5352C133.818 48.3448 131.51 49.2496 128.473 49.2496C126.58 49.2496 124.906 48.8856 123.45 48.1576C121.994 47.4088 120.87 46.3792 120.08 45.0688C119.29 43.7584 118.894 42.2712 118.894 40.6072C118.894 38.964 119.279 37.4872 120.049 36.1768C120.839 34.8456 121.91 33.816 123.262 33.088C124.635 32.3392 126.174 31.9648 127.88 31.9648C129.482 31.9648 130.938 32.308 132.248 32.9944C133.558 33.66 134.598 34.6376 135.368 35.9272C136.158 37.196 136.554 38.704 136.554 40.4512L124.136 42.8536C124.49 43.6856 125.041 44.3096 125.79 44.7256C126.559 45.1416 127.495 45.3496 128.598 45.3496ZM127.88 35.6464C126.653 35.6464 125.654 36.0416 124.885 36.832C124.115 37.6224 123.71 38.7144 123.668 40.108L131.842 38.5168C131.614 37.6432 131.146 36.9464 130.438 36.4264C129.731 35.9064 128.878 35.6464 127.88 35.6464ZM161.322 31.9648C163.423 31.9648 165.087 32.5888 166.314 33.8368C167.562 35.064 168.186 36.9152 168.186 39.3904V49H163.319V40.1392C163.319 38.808 163.038 37.82 162.477 37.1752C161.936 36.5096 161.156 36.1768 160.137 36.1768C158.993 36.1768 158.088 36.5512 157.422 37.3C156.757 38.028 156.424 39.12 156.424 40.576V49H151.557V40.1392C151.557 37.4976 150.496 36.1768 148.374 36.1768C147.251 36.1768 146.357 36.5512 145.691 37.3C145.025 38.028 144.693 39.12 144.693 40.576V49H139.825V32.2144H144.474V34.1488C145.098 33.4416 145.857 32.9008 146.752 32.5264C147.667 32.152 148.665 31.9648 149.747 31.9648C150.933 31.9648 152.004 32.204 152.961 32.6824C153.917 33.14 154.687 33.816 155.269 34.7104C155.956 33.8368 156.819 33.1608 157.859 32.6824C158.92 32.204 160.074 31.9648 161.322 31.9648ZM172.549 32.2144H177.416V49H172.549V32.2144ZM174.982 29.8744C174.088 29.8744 173.36 29.6144 172.798 29.0944C172.237 28.5744 171.956 27.9296 171.956 27.16C171.956 26.3904 172.237 25.7456 172.798 25.2256C173.36 24.7056 174.088 24.4456 174.982 24.4456C175.877 24.4456 176.605 24.6952 177.166 25.1944C177.728 25.6936 178.009 26.3176 178.009 27.0664C178.009 27.8776 177.728 28.5536 177.166 29.0944C176.605 29.6144 175.877 29.8744 174.982 29.8744ZM189.92 49.2496C188.152 49.2496 186.561 48.8856 185.147 48.1576C183.753 47.4088 182.661 46.3792 181.871 45.0688C181.08 43.7584 180.685 42.2712 180.685 40.6072C180.685 38.9432 181.08 37.456 181.871 36.1456C182.661 34.8352 183.753 33.816 185.147 33.088C186.561 32.3392 188.152 31.9648 189.92 31.9648C191.688 31.9648 193.269 32.3392 194.663 33.088C196.056 33.816 197.148 34.8352 197.939 36.1456C198.729 37.456 199.124 38.9432 199.124 40.6072C199.124 42.2712 198.729 43.7584 197.939 45.0688C197.148 46.3792 196.056 47.4088 194.663 48.1576C193.269 48.8856 191.688 49.2496 189.92 49.2496ZM189.92 45.256C191.168 45.256 192.188 44.84 192.978 44.008C193.789 43.1552 194.195 42.0216 194.195 40.6072C194.195 39.1928 193.789 38.0696 192.978 37.2376C192.188 36.3848 191.168 35.9584 189.92 35.9584C188.672 35.9584 187.643 36.3848 186.832 37.2376C186.02 38.0696 185.615 39.1928 185.615 40.6072C185.615 42.0216 186.02 43.1552 186.832 44.008C187.643 44.84 188.672 45.256 189.92 45.256ZM212.486 48.1888C212.008 48.5424 211.415 48.8128 210.708 49C210.022 49.1664 209.304 49.2496 208.555 49.2496C206.538 49.2496 204.988 48.74 203.906 47.7208C202.825 46.7016 202.284 45.204 202.284 43.228V28.5016H207.151V32.5888H211.301V36.3328H207.151V43.1656C207.151 43.8728 207.328 44.424 207.682 44.8192C208.035 45.1936 208.545 45.3808 209.21 45.3808C209.959 45.3808 210.625 45.1728 211.207 44.7568L212.486 48.1888ZM215.235 32.2144H220.103V49H215.235V32.2144ZM217.669 29.8744C216.775 29.8744 216.047 29.6144 215.485 29.0944C214.923 28.5744 214.643 27.9296 214.643 27.16C214.643 26.3904 214.923 25.7456 215.485 25.2256C216.047 24.7056 216.775 24.4456 217.669 24.4456C218.563 24.4456 219.291 24.6952 219.853 25.1944C220.415 25.6936 220.695 26.3176 220.695 27.0664C220.695 27.8776 220.415 28.5536 219.853 29.0944C219.291 29.6144 218.563 29.8744 217.669 29.8744ZM232.732 49.2496C230.943 49.2496 229.331 48.8856 227.896 48.1576C226.481 47.4088 225.369 46.3792 224.557 45.0688C223.767 43.7584 223.372 42.2712 223.372 40.6072C223.372 38.9432 223.767 37.456 224.557 36.1456C225.369 34.8352 226.481 33.816 227.896 33.088C229.331 32.3392 230.943 31.9648 232.732 31.9648C234.5 31.9648 236.039 32.3392 237.349 33.088C238.681 33.816 239.648 34.8664 240.251 36.2392L236.476 38.2672C235.602 36.728 234.344 35.9584 232.701 35.9584C231.432 35.9584 230.381 36.3744 229.549 37.2064C228.717 38.0384 228.301 39.172 228.301 40.6072C228.301 42.0424 228.717 43.176 229.549 44.008C230.381 44.84 231.432 45.256 232.701 45.256C234.365 45.256 235.623 44.4864 236.476 42.9472L240.251 45.0064C239.648 46.3376 238.681 47.3776 237.349 48.1264C236.039 48.8752 234.5 49.2496 232.732 49.2496ZM248.701 49.2496C247.307 49.2496 245.945 49.0832 244.613 48.7504C243.282 48.3968 242.221 47.96 241.431 47.44L243.053 43.9456C243.802 44.424 244.707 44.8192 245.768 45.1312C246.829 45.4224 247.869 45.568 248.888 45.568C250.947 45.568 251.977 45.0584 251.977 44.0392C251.977 43.5608 251.696 43.2176 251.134 43.0096C250.573 42.8016 249.709 42.6248 248.545 42.4792C247.172 42.2712 246.038 42.032 245.144 41.7616C244.249 41.4912 243.469 41.0128 242.804 40.3264C242.159 39.64 241.837 38.6624 241.837 37.3936C241.837 36.3328 242.138 35.3968 242.741 34.5856C243.365 33.7536 244.26 33.1088 245.425 32.6512C246.61 32.1936 248.004 31.9648 249.605 31.9648C250.791 31.9648 251.966 32.1 253.131 32.3704C254.317 32.62 255.294 32.9736 256.064 33.4312L254.441 36.8944C252.965 36.0624 251.353 35.6464 249.605 35.6464C248.565 35.6464 247.785 35.792 247.265 36.0832C246.745 36.3744 246.485 36.7488 246.485 37.2064C246.485 37.7264 246.766 38.0904 247.328 38.2984C247.889 38.5064 248.784 38.704 250.011 38.8912C251.384 39.12 252.507 39.3696 253.381 39.64C254.254 39.8896 255.013 40.3576 255.658 41.044C256.303 41.7304 256.625 42.6872 256.625 43.9144C256.625 44.9544 256.313 45.88 255.689 46.6912C255.065 47.5024 254.15 48.1368 252.944 48.5944C251.758 49.0312 250.344 49.2496 248.701 49.2496ZM112.165 60.7856C114.765 60.7856 116.793 61.6072 118.249 63.2504C119.705 64.8728 120.433 67.192 120.433 70.208V83H115.378V70.364C115.378 68.6168 114.962 67.3064 114.13 66.4328C113.319 65.5384 112.186 65.0912 110.73 65.0912C109.19 65.0912 107.953 65.5696 107.017 66.5264C106.102 67.4624 105.644 68.856 105.644 70.7072V83H100.59V61.16H105.488V63.812C106.237 62.8136 107.173 62.0648 108.296 61.5656C109.419 61.0456 110.709 60.7856 112.165 60.7856ZM125.422 61.16H130.476V78.8816H141.427V83H125.422V61.16ZM153.705 61.16C155.639 61.16 157.314 61.4824 158.728 62.1272C160.163 62.772 161.266 63.6872 162.035 64.8728C162.805 66.0584 163.19 67.4624 163.19 69.0848C163.19 70.6864 162.805 72.0904 162.035 73.2968C161.266 74.4824 160.163 75.3976 158.728 76.0424C157.314 76.6664 155.639 76.9784 153.705 76.9784H149.306V83H144.251V61.16H153.705ZM153.424 72.86C154.943 72.86 156.097 72.5376 156.887 71.8928C157.678 71.2272 158.073 70.2912 158.073 69.0848C158.073 67.8576 157.678 66.9216 156.887 66.2768C156.097 65.6112 154.943 65.2784 153.424 65.2784H149.306V72.86H153.424ZM191.851 67.2752C189.979 66.1936 187.972 65.4968 185.829 65.1848V83H180.775V65.1848C178.632 65.4968 176.615 66.1936 174.722 67.2752L173.006 63.5C174.504 62.6056 176.126 61.9296 177.873 61.472C179.62 61.0144 181.42 60.7856 183.271 60.7856C185.143 60.7856 186.952 61.0144 188.7 61.472C190.468 61.9296 192.09 62.6056 193.567 63.5L191.851 67.2752ZM202.241 79.3496C203.114 79.3496 203.884 79.2248 204.549 78.9752C205.236 78.7048 205.87 78.2888 206.453 77.7272L209.042 80.5352C207.461 82.3448 205.153 83.2496 202.116 83.2496C200.223 83.2496 198.549 82.8856 197.093 82.1576C195.637 81.4088 194.513 80.3792 193.723 79.0688C192.933 77.7584 192.537 76.2712 192.537 74.6072C192.537 72.964 192.922 71.4872 193.692 70.1768C194.482 68.8456 195.553 67.816 196.905 67.088C198.278 66.3392 199.817 65.9648 201.523 65.9648C203.125 65.9648 204.581 66.308 205.891 66.9944C207.201 67.66 208.241 68.6376 209.011 69.9272C209.801 71.196 210.197 72.704 210.197 74.4512L197.779 76.8536C198.133 77.6856 198.684 78.3096 199.433 78.7256C200.202 79.1416 201.138 79.3496 202.241 79.3496ZM201.523 69.6464C200.296 69.6464 199.297 70.0416 198.528 70.832C197.758 71.6224 197.353 72.7144 197.311 74.108L205.485 72.5168C205.257 71.6432 204.789 70.9464 204.081 70.4264C203.374 69.9064 202.521 69.6464 201.523 69.6464ZM230.503 66.2144V83H225.855V81.0656C224.648 82.5216 222.901 83.2496 220.613 83.2496C219.032 83.2496 217.597 82.896 216.307 82.1888C215.039 81.4816 214.04 80.4728 213.312 79.1624C212.584 77.852 212.22 76.3336 212.22 74.6072C212.22 72.8808 212.584 71.3624 213.312 70.052C214.04 68.7416 215.039 67.7328 216.307 67.0256C217.597 66.3184 219.032 65.9648 220.613 65.9648C222.755 65.9648 224.43 66.6408 225.636 67.9928V66.2144H230.503ZM221.455 79.256C222.683 79.256 223.702 78.84 224.513 78.008C225.324 77.1552 225.73 76.0216 225.73 74.6072C225.73 73.1928 225.324 72.0696 224.513 71.2376C223.702 70.3848 222.683 69.9584 221.455 69.9584C220.207 69.9584 219.178 70.3848 218.367 71.2376C217.555 72.0696 217.15 73.1928 217.15 74.6072C217.15 76.0216 217.555 77.1552 218.367 78.008C219.178 78.84 220.207 79.256 221.455 79.256ZM256.506 65.9648C258.607 65.9648 260.271 66.5888 261.498 67.8368C262.746 69.064 263.37 70.9152 263.37 73.3904V83H258.503V74.1392C258.503 72.808 258.222 71.82 257.661 71.1752C257.12 70.5096 256.34 70.1768 255.321 70.1768C254.177 70.1768 253.272 70.5512 252.606 71.3C251.941 72.028 251.608 73.12 251.608 74.576V83H246.741V74.1392C246.741 71.4976 245.68 70.1768 243.558 70.1768C242.435 70.1768 241.541 70.5512 240.875 71.3C240.21 72.028 239.877 73.12 239.877 74.576V83H235.01V66.2144H239.658V68.1488C240.282 67.4416 241.042 66.9008 241.936 66.5264C242.851 66.152 243.85 65.9648 244.931 65.9648C246.117 65.9648 247.188 66.204 248.145 66.6824C249.102 67.14 249.871 67.816 250.454 68.7104C251.14 67.8368 252.003 67.1608 253.043 66.6824C254.104 66.204 255.258 65.9648 256.506 65.9648Z" fill="black"/>
<path d="M99.365 2.9H100.665V10.869H105.592V12H99.365V2.9ZM113.313 5.11V12H112.117V10.908C111.84 11.2893 111.489 11.5797 111.064 11.779C110.639 11.9783 110.171 12.078 109.66 12.078C108.993 12.078 108.395 11.9307 107.866 11.636C107.337 11.3413 106.921 10.9297 106.618 10.401C106.323 9.86367 106.176 9.24833 106.176 8.555C106.176 7.86167 106.323 7.25067 106.618 6.722C106.921 6.19333 107.337 5.78167 107.866 5.487C108.395 5.19233 108.993 5.045 109.66 5.045C110.154 5.045 110.609 5.14033 111.025 5.331C111.441 5.513 111.788 5.786 112.065 6.15V5.11H113.313ZM109.764 10.986C110.197 10.986 110.592 10.8863 110.947 10.687C111.302 10.479 111.58 10.193 111.779 9.829C111.978 9.45633 112.078 9.03167 112.078 8.555C112.078 8.07833 111.978 7.658 111.779 7.294C111.58 6.92133 111.302 6.63533 110.947 6.436C110.592 6.23667 110.197 6.137 109.764 6.137C109.322 6.137 108.923 6.23667 108.568 6.436C108.221 6.63533 107.944 6.92133 107.736 7.294C107.537 7.658 107.437 8.07833 107.437 8.555C107.437 9.03167 107.537 9.45633 107.736 9.829C107.944 10.193 108.221 10.479 108.568 10.687C108.923 10.8863 109.322 10.986 109.764 10.986ZM119.327 5.045C119.995 5.045 120.593 5.19233 121.121 5.487C121.65 5.78167 122.062 6.19333 122.356 6.722C122.66 7.25067 122.811 7.86167 122.811 8.555C122.811 9.24833 122.66 9.86367 122.356 10.401C122.062 10.9297 121.65 11.3413 121.121 11.636C120.593 11.9307 119.995 12.078 119.327 12.078C118.816 12.078 118.348 11.9783 117.923 11.779C117.499 11.5797 117.148 11.2893 116.87 10.908V12H115.674V2.354H116.922V6.15C117.2 5.786 117.546 5.513 117.962 5.331C118.378 5.14033 118.833 5.045 119.327 5.045ZM119.223 10.986C119.665 10.986 120.06 10.8863 120.406 10.687C120.762 10.479 121.039 10.193 121.238 9.829C121.446 9.45633 121.55 9.03167 121.55 8.555C121.55 8.07833 121.446 7.658 121.238 7.294C121.039 6.92133 120.762 6.63533 120.406 6.436C120.06 6.23667 119.665 6.137 119.223 6.137C118.79 6.137 118.396 6.23667 118.04 6.436C117.685 6.63533 117.408 6.92133 117.208 7.294C117.009 7.658 116.909 8.07833 116.909 8.555C116.909 9.03167 117.009 9.45633 117.208 9.829C117.408 10.193 117.685 10.479 118.04 10.687C118.396 10.8863 118.79 10.986 119.223 10.986ZM130.458 4.031V10.869H132.213V12H127.403V10.869H129.158V4.031H127.403V2.9H132.213V4.031H130.458ZM136.386 4.031V10.869H138.141V12H133.331V10.869H135.086V4.031H133.331V2.9H138.141V4.031H136.386ZM142.315 4.031V10.869H144.07V12H139.26V10.869H141.015V4.031H139.26V2.9H144.07V4.031H142.315Z" fill="black"/>
<path d="M74.1655 73.305C73.5182 72.4578 72.7086 71.7481 71.7838 71.2174C70.8592 70.6868 69.8379 70.3458 68.7799 70.2143C64.7267 69.6554 61.0596 67.5149 58.5798 64.2606C56.1 61.0061 55.0092 56.9025 55.5457 52.8464C55.7512 51.2788 55.489 49.6855 54.7919 48.2665C54.0949 46.8474 52.9941 45.666 51.6279 44.8706C50.2615 44.0752 48.6906 43.7013 47.1124 43.7957C45.5343 43.8902 44.0193 44.4487 42.7576 45.4014C41.4959 46.3542 40.5438 47.6583 40.0209 49.1503C39.4981 50.6424 39.4277 52.2556 39.8187 53.7874C40.2097 55.3193 41.0446 56.7015 42.2186 57.7604C43.3925 58.8193 44.8532 59.5078 46.4171 59.7392C48.4372 60.004 50.3851 60.665 52.1493 61.6841C53.9134 62.7032 55.4591 64.0605 56.6976 65.6781C57.9362 67.2958 58.8433 69.142 59.367 71.1108C59.8908 73.0797 60.0207 75.1326 59.7495 77.1518C59.5984 78.4514 59.7674 79.7681 60.2418 80.9873C60.7162 82.2065 61.4816 83.2911 62.4713 84.1468C63.461 85.0024 64.6448 85.603 65.9198 85.8963C67.1948 86.1895 68.5221 86.1664 69.7861 85.8291C71.0502 85.4919 72.2125 84.8505 73.1719 83.9611C74.1313 83.0716 74.8586 81.9611 75.2904 80.7262C75.7222 79.4911 75.8455 78.1694 75.6495 76.8759C75.4533 75.5824 74.944 74.3565 74.1655 73.305Z" fill="#FF7438"/>
<path d="M24.2347 68.9441C25.7022 69.5785 27.3257 69.76 28.8969 69.4653C30.4683 69.1706 31.9157 68.4131 33.0535 67.2901C34.1914 66.167 34.9677 64.7296 35.2829 63.1623C35.5981 61.5949 35.4378 59.9692 34.8226 58.4936C34.0417 56.6117 33.6399 54.5942 33.6403 52.5568C33.6408 50.5193 34.0432 48.502 34.8248 46.6204C35.6064 44.7388 36.7517 43.03 38.195 41.5919C39.6383 40.1538 41.3512 39.0148 43.2356 38.24C44.6963 37.631 45.9442 36.6034 46.8223 35.2868C47.7003 33.9702 48.1694 32.4232 48.1703 30.8406C48.1713 29.258 47.7041 27.7104 46.8276 26.3928C45.9511 25.0751 44.7044 24.046 43.2445 23.4352C41.7845 22.8244 40.1765 22.659 38.6229 22.96C37.0692 23.2609 35.6391 24.0146 34.5128 25.1264C33.3864 26.2381 32.6141 27.6582 32.2929 29.2078C31.9718 30.7575 32.1162 32.3675 32.7079 33.8353C34.2552 37.6228 34.2391 41.8691 32.6631 45.6447C31.087 49.4204 28.0794 52.4178 24.2985 53.9811C22.8031 54.5676 21.5182 55.5894 20.6101 56.9144C19.7019 58.2394 19.2124 59.8064 19.205 61.4127C19.1977 63.0189 19.6727 64.5905 20.5686 65.9237C21.4645 67.257 22.7399 68.2906 24.2298 68.8907L24.2347 68.9441Z" fill="#FF7438"/>
<path d="M44.6724 65.753C43.6137 65.8877 42.5925 66.2324 41.6686 66.7667C40.7447 67.301 39.9367 68.0143 39.2919 68.8648C36.7839 72.0944 33.0992 74.1996 29.0435 74.7201C24.9877 75.2407 20.8907 74.1342 17.6484 71.6427C16.8097 70.989 15.8495 70.5085 14.8235 70.2293C13.7976 69.95 12.7264 69.8775 11.6721 70.0159C10.3754 70.1969 9.1426 70.6925 8.08148 71.4594C7.02027 72.2263 6.16304 73.2413 5.58444 74.4157C5.00576 75.5902 4.72344 76.8885 4.76192 78.1972C4.80051 79.506 5.15871 80.7853 5.80547 81.9238C6.45222 83.0621 7.36769 84.025 8.47213 84.7282C9.57658 85.4314 10.8363 85.8535 12.1414 85.9578C13.4465 86.0621 14.7574 85.8454 15.9595 85.3266C17.1616 84.8078 18.2185 84.0027 19.0377 82.9814C20.2782 81.3639 21.8255 80.007 23.5911 78.9884C25.3569 77.9699 27.3061 77.3096 29.3273 77.0457C31.3485 76.7817 33.402 76.9189 35.37 77.4498C37.3381 77.9807 39.1821 78.8946 40.7963 80.1392C41.845 80.9255 43.0704 81.4427 44.3653 81.6457C45.6602 81.8488 46.9851 81.7315 48.2241 81.3041C49.4632 80.8767 50.5785 80.1522 51.4728 79.194C52.3671 78.2358 53.013 77.073 53.354 75.8074C53.695 74.5418 53.7207 73.2121 53.4289 71.9342C53.1371 70.6564 52.5366 69.4697 51.6799 68.4776C50.8233 67.4855 49.7368 66.7185 48.5152 66.2435C47.2935 65.7686 45.9741 65.6001 44.6724 65.753Z" fill="#FF7438"/>
</svg>
