<svg width="187" height="48" viewBox="0 0 187 48" fill="none" xmlns="http://www.w3.org/2000/svg">
<path d="M72.8935 19.2272C71.6304 19.2272 70.4054 19.0598 69.2184 18.7251C68.0467 18.375 67.1032 17.9261 66.3879 17.3783L67.6434 14.5935C68.3282 15.0956 69.1423 15.4989 70.0858 15.8033C71.0293 16.1076 71.9728 16.2598 72.9163 16.2598C73.9663 16.2598 74.7424 16.1076 75.2446 15.8033C75.7468 15.4837 75.9979 15.0652 75.9979 14.5478C75.9979 14.1674 75.8457 13.8554 75.5413 13.6119C75.2522 13.3532 74.8718 13.1478 74.4 12.9956C73.9435 12.8434 73.3196 12.676 72.5283 12.4934C71.3108 12.2043 70.3141 11.9152 69.538 11.626C68.7619 11.3369 68.0923 10.8728 67.5293 10.2336C66.9814 9.59447 66.7075 8.74228 66.7075 7.67705C66.7075 6.74877 66.9586 5.9118 67.4608 5.16613C67.963 4.40525 68.7162 3.80416 69.7206 3.36284C70.7402 2.92153 71.9804 2.70088 73.4413 2.70088C74.4609 2.70088 75.4576 2.82262 76.4316 3.0661C77.4055 3.30958 78.2577 3.65959 78.9881 4.11612L77.8468 6.92377C76.3707 6.0868 74.8946 5.66832 73.4185 5.66832C72.3837 5.66832 71.6152 5.83571 71.113 6.1705C70.6261 6.50529 70.3826 6.9466 70.3826 7.49443C70.3826 8.04227 70.6641 8.45315 71.2271 8.72706C71.8054 8.98576 72.6804 9.24446 73.8522 9.50316C75.0696 9.7923 76.0664 10.0814 76.8425 10.3706C77.6186 10.6597 78.2805 11.1162 78.8284 11.7402C79.3914 12.3641 79.6729 13.2087 79.6729 14.2739C79.6729 15.187 79.4142 16.0239 78.8968 16.7848C78.3947 17.5305 77.6338 18.124 76.6142 18.5653C75.5946 19.0066 74.3544 19.2272 72.8935 19.2272Z" fill="white"/>
<path d="M88.1346 16.2826C88.7737 16.2826 89.3368 16.1913 89.8238 16.0087C90.3259 15.8109 90.7901 15.5065 91.2162 15.0956L93.1108 17.15C91.9542 18.474 90.2651 19.1359 88.0433 19.1359C86.6585 19.1359 85.4335 18.8696 84.3682 18.337C83.303 17.7892 82.4812 17.0359 81.903 16.0772C81.3247 15.1185 81.0356 14.0304 81.0356 12.813C81.0356 11.6108 81.3171 10.5304 81.8801 9.57164C82.4584 8.59771 83.2421 7.84444 84.2313 7.31182C85.2356 6.76399 86.3617 6.49007 87.6096 6.49007C88.7813 6.49007 89.8466 6.74116 90.8053 7.24334C91.764 7.73031 92.5249 8.44554 93.0879 9.38903C93.6662 10.3173 93.9553 11.4206 93.9553 12.6989L84.8704 14.4565C85.1291 15.0652 85.5324 15.5217 86.0802 15.8261C86.6433 16.1304 87.3281 16.2826 88.1346 16.2826ZM87.6096 9.18359C86.7117 9.18359 85.9813 9.47273 85.4182 10.051C84.8552 10.6293 84.5584 11.4282 84.528 12.4478L90.5085 11.2836C90.3412 10.6445 89.9988 10.1347 89.4814 9.75425C88.964 9.37381 88.34 9.18359 87.6096 9.18359Z" fill="white"/>
<path d="M112.076 6.49007C113.613 6.49007 114.831 6.9466 115.729 7.85966C116.642 8.7575 117.098 10.1119 117.098 11.9228V18.9533H113.537V12.4706C113.537 11.4967 113.332 10.7738 112.921 10.3021C112.525 9.81512 111.955 9.57164 111.209 9.57164C110.372 9.57164 109.71 9.84556 109.223 10.3934C108.736 10.926 108.493 11.7249 108.493 12.7902V18.9533H104.932V12.4706C104.932 10.538 104.156 9.57164 102.603 9.57164C101.782 9.57164 101.127 9.84556 100.64 10.3934C100.153 10.926 99.9098 11.7249 99.9098 12.7902V18.9533H96.3489V6.67268H99.75V8.08792C100.207 7.57052 100.762 7.17486 101.416 6.90095C102.086 6.62703 102.816 6.49007 103.608 6.49007C104.475 6.49007 105.259 6.66507 105.959 7.01508C106.659 7.34987 107.222 7.84444 107.648 8.4988C108.15 7.85966 108.782 7.36508 109.543 7.01508C110.319 6.66507 111.163 6.49007 112.076 6.49007Z" fill="white"/>
<path d="M120.29 6.67268H123.851V18.9533H120.29V6.67268ZM122.07 4.9607C121.416 4.9607 120.883 4.77048 120.473 4.39004C120.062 4.00959 119.856 3.53785 119.856 2.97479C119.856 2.41174 120.062 1.93999 120.473 1.55955C120.883 1.17911 121.416 0.988892 122.07 0.988892C122.725 0.988892 123.257 1.1715 123.668 1.53673C124.079 1.90195 124.285 2.35848 124.285 2.90632C124.285 3.4998 124.079 3.99438 123.668 4.39004C123.257 4.77048 122.725 4.9607 122.07 4.9607Z" fill="white"/>
<path d="M132.999 19.1359C131.706 19.1359 130.542 18.8696 129.507 18.337C128.487 17.7892 127.688 17.0359 127.11 16.0772C126.532 15.1185 126.243 14.0304 126.243 12.813C126.243 11.5956 126.532 10.5075 127.11 9.54882C127.688 8.5901 128.487 7.84444 129.507 7.31182C130.542 6.76399 131.706 6.49007 132.999 6.49007C134.293 6.49007 135.449 6.76399 136.469 7.31182C137.488 7.84444 138.287 8.5901 138.866 9.54882C139.444 10.5075 139.733 11.5956 139.733 12.813C139.733 14.0304 139.444 15.1185 138.866 16.0772C138.287 17.0359 137.488 17.7892 136.469 18.337C135.449 18.8696 134.293 19.1359 132.999 19.1359ZM132.999 16.2141C133.912 16.2141 134.658 15.9098 135.236 15.3011C135.83 14.6772 136.126 13.8478 136.126 12.813C136.126 11.7782 135.83 10.9564 135.236 10.3477C134.658 9.72382 133.912 9.41186 132.999 9.41186C132.086 9.41186 131.333 9.72382 130.739 10.3477C130.146 10.9564 129.849 11.7782 129.849 12.813C129.849 13.8478 130.146 14.6772 130.739 15.3011C131.333 15.9098 132.086 16.2141 132.999 16.2141Z" fill="white"/>
<path d="M149.509 18.3598C149.159 18.6185 148.725 18.8164 148.208 18.9533C147.706 19.0751 147.181 19.1359 146.633 19.1359C145.157 19.1359 144.023 18.7631 143.232 18.0174C142.44 17.2718 142.045 16.1761 142.045 14.7304V3.95633H145.606V6.9466H148.642V9.68577H145.606V14.6848C145.606 15.2022 145.735 15.6054 145.994 15.8946C146.252 16.1685 146.625 16.3054 147.112 16.3054C147.66 16.3054 148.147 16.1533 148.573 15.8489L149.509 18.3598Z" fill="white"/>
<path d="M151.52 6.67268H155.081V18.9533H151.52V6.67268ZM153.301 4.9607C152.646 4.9607 152.114 4.77048 151.703 4.39004C151.292 4.00959 151.087 3.53785 151.087 2.97479C151.087 2.41174 151.292 1.93999 151.703 1.55955C152.114 1.17911 152.646 0.988892 153.301 0.988892C153.955 0.988892 154.488 1.1715 154.899 1.53673C155.309 1.90195 155.515 2.35848 155.515 2.90632C155.515 3.4998 155.309 3.99438 154.899 4.39004C154.488 4.77048 153.955 4.9607 153.301 4.9607Z" fill="white"/>
<path d="M164.321 19.1359C163.012 19.1359 161.833 18.8696 160.783 18.337C159.748 17.7892 158.934 17.0359 158.34 16.0772C157.762 15.1185 157.473 14.0304 157.473 12.813C157.473 11.5956 157.762 10.5075 158.34 9.54882C158.934 8.5901 159.748 7.84444 160.783 7.31182C161.833 6.76399 163.012 6.49007 164.321 6.49007C165.614 6.49007 166.741 6.76399 167.699 7.31182C168.673 7.84444 169.381 8.61293 169.822 9.6173L167.06 11.101C166.421 9.97491 165.5 9.41186 164.298 9.41186C163.37 9.41186 162.601 9.71621 161.993 10.3249C161.384 10.9336 161.08 11.763 161.08 12.813C161.08 13.863 161.384 14.6924 161.993 15.3011C162.601 15.9098 163.37 16.2141 164.298 16.2141C165.515 16.2141 166.436 15.6511 167.06 14.525L169.822 16.0315C169.381 17.0055 168.673 17.7663 167.699 18.3142C166.741 18.862 165.614 19.1359 164.321 19.1359Z" fill="white"/>
<path d="M176.004 19.1359C174.984 19.1359 173.988 19.0142 173.014 18.7707C172.04 18.512 171.264 18.1924 170.685 17.812L171.872 15.2554C172.42 15.6054 173.082 15.8946 173.858 16.1228C174.634 16.3359 175.395 16.4424 176.141 16.4424C177.647 16.4424 178.401 16.0696 178.401 15.3239C178.401 14.9739 178.195 14.7228 177.784 14.5706C177.374 14.4185 176.742 14.2891 175.89 14.1826C174.885 14.0304 174.056 13.8554 173.402 13.6576C172.747 13.4597 172.177 13.1097 171.69 12.6076C171.218 12.1054 170.982 11.3902 170.982 10.4619C170.982 9.68577 171.203 9.00098 171.644 8.40749C172.101 7.79879 172.755 7.32704 173.607 6.99225C174.475 6.65746 175.494 6.49007 176.666 6.49007C177.533 6.49007 178.393 6.58898 179.245 6.78681C180.113 6.96942 180.828 7.22813 181.391 7.56291L180.204 10.0967C179.124 9.48794 177.944 9.18359 176.666 9.18359C175.905 9.18359 175.334 9.29012 174.954 9.50316C174.573 9.71621 174.383 9.99013 174.383 10.3249C174.383 10.7054 174.589 10.9717 175 11.1238C175.41 11.276 176.065 11.4206 176.963 11.5575C177.967 11.7249 178.789 11.9076 179.428 12.1054C180.067 12.288 180.622 12.6304 181.094 13.1326C181.566 13.6348 181.802 14.3348 181.802 15.2326C181.802 15.9935 181.574 16.6707 181.117 17.2642C180.661 17.8576 179.991 18.3218 179.108 18.6566C178.241 18.9761 177.206 19.1359 176.004 19.1359Z" fill="white"/>
<path d="M76.112 27.5759C78.0142 27.5759 79.4979 28.177 80.5632 29.3792C81.6284 30.5661 82.161 32.2629 82.161 34.4695V43.8283H78.4631V34.5836C78.4631 33.3053 78.1588 32.3466 77.5501 31.7075C76.9566 31.0531 76.1272 30.7259 75.062 30.7259C73.9359 30.7259 73.0304 31.0759 72.3456 31.7759C71.6761 32.4607 71.3413 33.4803 71.3413 34.8347V43.8283H67.6434V27.8498H71.2271V29.79C71.775 29.0596 72.4598 28.5117 73.2815 28.1465C74.1033 27.7661 75.0468 27.5759 76.112 27.5759Z" fill="white"/>
<path d="M85.8109 27.8498H89.5088V40.8152H97.5209V43.8283H85.8109V27.8498Z" fill="white"/>
<path d="M106.503 27.8498C107.919 27.8498 109.144 28.0857 110.179 28.5574C111.229 29.0291 112.035 29.6987 112.598 30.5661C113.161 31.4335 113.443 32.4607 113.443 33.6477C113.443 34.8195 113.161 35.8467 112.598 36.7293C112.035 37.5967 111.229 38.2663 110.179 38.738C109.144 39.1945 107.919 39.4228 106.503 39.4228H103.285V43.8283H99.587V27.8498H106.503ZM106.298 36.4097C107.409 36.4097 108.253 36.1738 108.832 35.7021C109.41 35.2151 109.699 34.5303 109.699 33.6477C109.699 32.7499 109.41 32.0651 108.832 31.5933C108.253 31.1064 107.409 30.8629 106.298 30.8629H103.285V36.4097H106.298Z" fill="white"/>
<path d="M134.412 32.3238C133.042 31.5325 131.574 31.0227 130.006 30.7944V43.8283H126.308V30.7944C124.741 31.0227 123.265 31.5325 121.88 32.3238L120.624 29.5618C121.72 28.9074 122.907 28.4128 124.185 28.078C125.464 27.7433 126.78 27.5759 128.134 27.5759C129.504 27.5759 130.828 27.7433 132.106 28.078C133.4 28.4128 134.587 28.9074 135.667 29.5618L134.412 32.3238Z" fill="white"/>
<path d="M142.013 41.1576C142.652 41.1576 143.215 41.0663 143.702 40.8837C144.204 40.6859 144.669 40.3815 145.095 39.9706L146.989 42.025C145.833 43.3489 144.144 44.0109 141.922 44.0109C140.537 44.0109 139.312 43.7446 138.247 43.212C137.181 42.6642 136.36 41.9109 135.781 40.9522C135.203 39.9935 134.914 38.9054 134.914 37.688C134.914 36.4858 135.196 35.4053 135.759 34.4466C136.337 33.4727 137.121 32.7194 138.11 32.1868C139.114 31.639 140.24 31.3651 141.488 31.3651C142.66 31.3651 143.725 31.6162 144.684 32.1183C145.642 32.6053 146.403 33.3205 146.966 34.264C147.545 35.1923 147.834 36.2956 147.834 37.5739L138.749 39.3315C139.008 39.9402 139.411 40.3967 139.959 40.7011C140.522 41.0054 141.207 41.1576 142.013 41.1576ZM141.488 34.0586C140.59 34.0586 139.86 34.3477 139.297 34.926C138.734 35.5043 138.437 36.3032 138.406 37.3228L144.387 36.1586C144.22 35.5195 143.877 35.0097 143.36 34.6292C142.842 34.2488 142.218 34.0586 141.488 34.0586Z" fill="white"/>
<path d="M162.691 31.5477V43.8283H159.289V42.4131C158.407 43.4783 157.129 44.0109 155.455 44.0109C154.298 44.0109 153.248 43.7522 152.305 43.2348C151.376 42.7174 150.646 41.9794 150.113 41.0207C149.581 40.0619 149.314 38.9511 149.314 37.688C149.314 36.4249 149.581 35.314 150.113 34.3553C150.646 33.3966 151.376 32.6586 152.305 32.1412C153.248 31.6238 154.298 31.3651 155.455 31.3651C157.022 31.3651 158.247 31.8596 159.13 32.8488V31.5477H162.691ZM156.071 41.0891C156.969 41.0891 157.714 40.7848 158.308 40.1761C158.901 39.5521 159.198 38.7228 159.198 37.688C159.198 36.6532 158.901 35.8314 158.308 35.2227C157.714 34.5988 156.969 34.2868 156.071 34.2868C155.158 34.2868 154.405 34.5988 153.811 35.2227C153.218 35.8314 152.921 36.6532 152.921 37.688C152.921 38.7228 153.218 39.5521 153.811 40.1761C154.405 40.7848 155.158 41.0891 156.071 41.0891Z" fill="white"/>
<path d="M181.715 31.3651C183.252 31.3651 184.469 31.8216 185.367 32.7346C186.28 33.6325 186.737 34.9869 186.737 36.7978V43.8283H183.176V37.3456C183.176 36.3717 182.97 35.6488 182.559 35.1771C182.164 34.6901 181.593 34.4466 180.847 34.4466C180.01 34.4466 179.348 34.7205 178.862 35.2684C178.375 35.801 178.131 36.5999 178.131 37.6652V43.8283H174.57V37.3456C174.57 35.4129 173.794 34.4466 172.242 34.4466C171.42 34.4466 170.766 34.7205 170.279 35.2684C169.792 35.801 169.548 36.5999 169.548 37.6652V43.8283H165.987V31.5477H169.389V32.9629C169.845 32.4455 170.401 32.0499 171.055 31.7759C171.724 31.502 172.455 31.3651 173.246 31.3651C174.114 31.3651 174.897 31.5401 175.597 31.8901C176.297 32.2249 176.86 32.7194 177.287 33.3738C177.789 32.7346 178.42 32.2401 179.181 31.8901C179.957 31.5401 180.802 31.3651 181.715 31.3651Z" fill="white"/>
<path d="M50.9026 39.0843C50.4876 38.4238 49.9452 37.8526 49.3069 37.4042C48.6687 36.9558 47.9475 36.6391 47.1854 36.4725C44.2698 35.7944 41.7412 33.9899 40.152 31.4531C38.5629 28.9163 38.0425 25.8537 38.7045 22.9344C38.959 21.8061 38.8745 20.6278 38.4615 19.5473C38.0485 18.4669 37.3255 17.5325 36.3833 16.8617C35.441 16.1909 34.3215 15.8135 33.1654 15.7768C32.0093 15.7401 30.8682 16.0458 29.8853 16.6555C28.9024 17.2653 28.1216 18.1518 27.6409 19.2039C27.1603 20.256 27.0011 21.4266 27.1836 22.5688C27.366 23.711 27.882 24.7738 28.6665 25.6237C29.4509 26.4737 30.4691 27.0729 31.5931 27.346C33.0471 27.674 34.4221 28.2857 35.6393 29.1462C36.8564 30.0065 37.8918 31.0988 38.686 32.3601C39.4803 33.6214 40.0178 35.0271 40.2677 36.4965C40.5177 37.966 40.4751 39.4703 40.1425 40.9233C39.9456 41.86 39.9807 42.8306 40.2448 43.7506C40.509 44.6705 40.9941 45.5119 41.658 46.2015C42.3218 46.891 43.1442 47.4077 44.0535 47.7066C44.9628 48.0054 45.9313 48.0773 46.8748 47.9161C47.8183 47.7549 48.708 47.3653 49.4664 46.7815C50.2249 46.1975 50.8289 45.4371 51.2261 44.5662C51.6232 43.6953 51.8014 42.7406 51.745 41.7851C51.6886 40.8296 51.3995 39.9024 50.9026 39.0843Z" fill="white"/>
<path d="M14.8165 32.5695C15.8432 33.1298 17.0139 33.3706 18.1783 33.2609C19.3429 33.1512 20.448 32.6961 21.352 31.954C22.2561 31.2118 22.9178 30.2164 23.2521 29.0957C23.5866 27.9748 23.5785 26.7797 23.2289 25.6635C22.7857 24.2402 22.6279 22.7435 22.7644 21.2591C22.9009 19.7747 23.3289 18.3319 24.0242 17.0133C24.7194 15.6947 25.668 14.5263 26.8156 13.575C27.9633 12.6238 29.2874 11.9085 30.712 11.4699C31.817 11.1238 32.7948 10.4586 33.5226 9.55809C34.2503 8.65756 34.6954 7.56187 34.8019 6.40891C34.9084 5.25594 34.6715 4.09722 34.121 3.07866C33.5705 2.06003 32.731 1.22698 31.7082 0.68439C30.6853 0.141796 29.5249 -0.0861951 28.3728 0.0292383C27.2207 0.1446 26.1285 0.598139 25.2336 1.33286C24.3386 2.06751 23.681 3.05049 23.3434 4.15803C23.0059 5.26557 23.0035 6.44822 23.3365 7.55713C24.2106 10.42 23.915 13.5126 22.5144 16.158C21.1138 18.8034 18.7222 20.7862 15.8631 21.6724C14.7344 21.9997 13.73 22.6583 12.9798 23.5629C12.2296 24.4675 11.7683 25.5765 11.6555 26.7462C11.5428 27.916 11.7838 29.0927 12.3474 30.1239C12.9109 31.1552 13.7711 31.9935 14.8165 32.5303V32.5695Z" fill="white"/>
<path d="M29.9202 31.6111C29.1398 31.6385 28.3728 31.8214 27.664 32.1489C26.9551 32.4765 26.3188 32.9421 25.7922 33.5187C23.7491 35.7039 20.9238 36.9914 17.9342 37.0996C14.9445 37.2077 12.0336 36.1277 9.83793 34.0958C9.27061 33.5635 8.60317 33.1492 7.87434 32.8772C7.14559 32.6051 6.36997 32.4807 5.59263 32.5111C4.63581 32.5562 3.70451 32.8349 2.88016 33.3227C2.05574 33.8106 1.36335 34.4927 0.86331 35.3097C0.363195 36.1267 0.0707304 37.0537 0.0112887 38.0097C-0.0480811 38.9658 0.127369 39.9218 0.522474 40.7945C0.917578 41.6671 1.52019 42.4298 2.27784 43.0159C3.03548 43.6021 3.92502 43.9938 4.8689 44.157C5.81278 44.3202 6.78233 44.25 7.69278 43.9524C8.60331 43.6547 9.42709 43.1388 10.0922 42.4495C11.1041 41.354 12.3221 40.4688 13.6766 39.8448C15.0311 39.2208 16.4953 38.87 17.9855 38.8128C19.4758 38.7556 20.9627 38.9928 22.361 39.5111C23.7594 40.0295 25.0417 40.8186 26.1346 41.8333C26.8461 42.4762 27.7043 42.9349 28.6341 43.1694C29.564 43.4039 30.537 43.407 31.4683 43.1784C32.3996 42.9499 33.2606 42.4966 33.9762 41.8583C34.6918 41.2199 35.2401 40.4159 35.5732 39.5167C35.9062 38.6174 36.0138 37.6503 35.8866 36.6998C35.7594 35.7494 35.4012 34.8446 34.8434 34.0646C34.2857 33.2846 33.5453 32.6531 32.6871 32.2254C31.8288 31.7977 30.8788 31.5868 29.9202 31.6111Z" fill="white"/>
</svg>
