<svg width="20" height="28" viewBox="0 0 20 28" fill="none" xmlns="http://www.w3.org/2000/svg">
<path d="M3.37596 0.614341L4.91309 0.132735C6.35593 -0.31807 7.89449 0.411339 8.51305 1.83656L9.74018 4.67579C10.2745 5.912 9.97875 7.36662 9.00591 8.27103L6.30022 10.7883C6.46593 12.2947 6.98307 13.7773 7.84877 15.2361C8.67131 16.6476 9.77451 17.883 11.093 18.8692L14.343 17.8051C15.5758 17.4033 16.9173 17.8667 17.6715 18.9546L19.4329 21.4886C20.3115 22.7542 20.1544 24.4986 19.0644 25.571L17.8958 26.7204C16.733 27.8643 15.0716 28.2801 13.5359 27.8097C9.90875 26.7008 6.5745 23.4094 3.53167 17.9353C0.484561 12.4529 -0.591143 7.79922 0.305991 3.97998C0.68313 2.37276 1.85026 1.09175 3.37596 0.614341Z" fill="#FF7438"/>
</svg>
