<svg width="331" height="109" viewBox="0 0 331 109" fill="none" xmlns="http://www.w3.org/2000/svg">
<path d="M140.766 48.3744C139.039 48.3744 137.365 48.1456 135.742 47.688C134.141 47.2096 132.851 46.596 131.874 45.8472L133.59 42.0408C134.526 42.7272 135.638 43.2784 136.928 43.6944C138.218 44.1104 139.507 44.3184 140.797 44.3184C142.232 44.3184 143.293 44.1104 143.979 43.6944C144.666 43.2576 145.009 42.6856 145.009 41.9784C145.009 41.4584 144.801 41.032 144.385 40.6992C143.99 40.3456 143.47 40.0648 142.825 39.8568C142.201 39.6488 141.348 39.42 140.266 39.1704C138.602 38.7752 137.24 38.38 136.179 37.9848C135.118 37.5896 134.203 36.9552 133.434 36.0816C132.685 35.208 132.31 34.0432 132.31 32.5872C132.31 31.3184 132.654 30.1744 133.34 29.1552C134.026 28.1152 135.056 27.2936 136.429 26.6904C137.822 26.0872 139.518 25.7856 141.514 25.7856C142.908 25.7856 144.27 25.952 145.602 26.2848C146.933 26.6176 148.098 27.096 149.096 27.72L147.536 31.5576C145.518 30.4136 143.501 29.8416 141.483 29.8416C140.069 29.8416 139.018 30.0704 138.332 30.528C137.666 30.9856 137.334 31.5888 137.334 32.3376C137.334 33.0864 137.718 33.648 138.488 34.0224C139.278 34.376 140.474 34.7296 142.076 35.0832C143.74 35.4784 145.102 35.8736 146.163 36.2688C147.224 36.664 148.129 37.288 148.878 38.1408C149.647 38.9936 150.032 40.148 150.032 41.604C150.032 42.852 149.678 43.996 148.971 45.036C148.285 46.0552 147.245 46.8664 145.851 47.4696C144.458 48.0728 142.762 48.3744 140.766 48.3744ZM161.598 44.3496C162.471 44.3496 163.241 44.2248 163.906 43.9752C164.593 43.7048 165.227 43.2888 165.81 42.7272L168.399 45.5352C166.818 47.3448 164.51 48.2496 161.473 48.2496C159.58 48.2496 157.906 47.8856 156.45 47.1576C154.994 46.4088 153.87 45.3792 153.08 44.0688C152.29 42.7584 151.894 41.2712 151.894 39.6072C151.894 37.964 152.279 36.4872 153.049 35.1768C153.839 33.8456 154.91 32.816 156.262 32.088C157.635 31.3392 159.174 30.9648 160.88 30.9648C162.482 30.9648 163.938 31.308 165.248 31.9944C166.558 32.66 167.598 33.6376 168.368 34.9272C169.158 36.196 169.554 37.704 169.554 39.4512L157.136 41.8536C157.49 42.6856 158.041 43.3096 158.79 43.7256C159.559 44.1416 160.495 44.3496 161.598 44.3496ZM160.88 34.6464C159.653 34.6464 158.654 35.0416 157.885 35.832C157.115 36.6224 156.71 37.7144 156.668 39.108L164.842 37.5168C164.614 36.6432 164.146 35.9464 163.438 35.4264C162.731 34.9064 161.878 34.6464 160.88 34.6464ZM194.322 30.9648C196.423 30.9648 198.087 31.5888 199.314 32.8368C200.562 34.064 201.186 35.9152 201.186 38.3904V48H196.319V39.1392C196.319 37.808 196.038 36.82 195.477 36.1752C194.936 35.5096 194.156 35.1768 193.137 35.1768C191.993 35.1768 191.088 35.5512 190.422 36.3C189.757 37.028 189.424 38.12 189.424 39.576V48H184.557V39.1392C184.557 36.4976 183.496 35.1768 181.374 35.1768C180.251 35.1768 179.357 35.5512 178.691 36.3C178.025 37.028 177.693 38.12 177.693 39.576V48H172.825V31.2144H177.474V33.1488C178.098 32.4416 178.857 31.9008 179.752 31.5264C180.667 31.152 181.665 30.9648 182.747 30.9648C183.933 30.9648 185.004 31.204 185.961 31.6824C186.917 32.14 187.687 32.816 188.269 33.7104C188.956 32.8368 189.819 32.1608 190.859 31.6824C191.92 31.204 193.074 30.9648 194.322 30.9648ZM205.549 31.2144H210.416V48H205.549V31.2144ZM207.982 28.8744C207.088 28.8744 206.36 28.6144 205.798 28.0944C205.237 27.5744 204.956 26.9296 204.956 26.16C204.956 25.3904 205.237 24.7456 205.798 24.2256C206.36 23.7056 207.088 23.4456 207.982 23.4456C208.877 23.4456 209.605 23.6952 210.166 24.1944C210.728 24.6936 211.009 25.3176 211.009 26.0664C211.009 26.8776 210.728 27.5536 210.166 28.0944C209.605 28.6144 208.877 28.8744 207.982 28.8744ZM222.92 48.2496C221.152 48.2496 219.561 47.8856 218.147 47.1576C216.753 46.4088 215.661 45.3792 214.871 44.0688C214.08 42.7584 213.685 41.2712 213.685 39.6072C213.685 37.9432 214.08 36.456 214.871 35.1456C215.661 33.8352 216.753 32.816 218.147 32.088C219.561 31.3392 221.152 30.9648 222.92 30.9648C224.688 30.9648 226.269 31.3392 227.663 32.088C229.056 32.816 230.148 33.8352 230.939 35.1456C231.729 36.456 232.124 37.9432 232.124 39.6072C232.124 41.2712 231.729 42.7584 230.939 44.0688C230.148 45.3792 229.056 46.4088 227.663 47.1576C226.269 47.8856 224.688 48.2496 222.92 48.2496ZM222.92 44.256C224.168 44.256 225.188 43.84 225.978 43.008C226.789 42.1552 227.195 41.0216 227.195 39.6072C227.195 38.1928 226.789 37.0696 225.978 36.2376C225.188 35.3848 224.168 34.9584 222.92 34.9584C221.672 34.9584 220.643 35.3848 219.832 36.2376C219.02 37.0696 218.615 38.1928 218.615 39.6072C218.615 41.0216 219.02 42.1552 219.832 43.008C220.643 43.84 221.672 44.256 222.92 44.256ZM245.486 47.1888C245.008 47.5424 244.415 47.8128 243.708 48C243.022 48.1664 242.304 48.2496 241.555 48.2496C239.538 48.2496 237.988 47.74 236.906 46.7208C235.825 45.7016 235.284 44.204 235.284 42.228V27.5016H240.151V31.5888H244.301V35.3328H240.151V42.1656C240.151 42.8728 240.328 43.424 240.682 43.8192C241.035 44.1936 241.545 44.3808 242.21 44.3808C242.959 44.3808 243.625 44.1728 244.207 43.7568L245.486 47.1888ZM248.235 31.2144H253.103V48H248.235V31.2144ZM250.669 28.8744C249.775 28.8744 249.047 28.6144 248.485 28.0944C247.923 27.5744 247.643 26.9296 247.643 26.16C247.643 25.3904 247.923 24.7456 248.485 24.2256C249.047 23.7056 249.775 23.4456 250.669 23.4456C251.563 23.4456 252.291 23.6952 252.853 24.1944C253.415 24.6936 253.695 25.3176 253.695 26.0664C253.695 26.8776 253.415 27.5536 252.853 28.0944C252.291 28.6144 251.563 28.8744 250.669 28.8744ZM265.732 48.2496C263.943 48.2496 262.331 47.8856 260.896 47.1576C259.481 46.4088 258.369 45.3792 257.557 44.0688C256.767 42.7584 256.372 41.2712 256.372 39.6072C256.372 37.9432 256.767 36.456 257.557 35.1456C258.369 33.8352 259.481 32.816 260.896 32.088C262.331 31.3392 263.943 30.9648 265.732 30.9648C267.5 30.9648 269.039 31.3392 270.349 32.088C271.681 32.816 272.648 33.8664 273.251 35.2392L269.476 37.2672C268.602 35.728 267.344 34.9584 265.701 34.9584C264.432 34.9584 263.381 35.3744 262.549 36.2064C261.717 37.0384 261.301 38.172 261.301 39.6072C261.301 41.0424 261.717 42.176 262.549 43.008C263.381 43.84 264.432 44.256 265.701 44.256C267.365 44.256 268.623 43.4864 269.476 41.9472L273.251 44.0064C272.648 45.3376 271.681 46.3776 270.349 47.1264C269.039 47.8752 267.5 48.2496 265.732 48.2496ZM281.701 48.2496C280.307 48.2496 278.945 48.0832 277.613 47.7504C276.282 47.3968 275.221 46.96 274.431 46.44L276.053 42.9456C276.802 43.424 277.707 43.8192 278.768 44.1312C279.829 44.4224 280.869 44.568 281.888 44.568C283.947 44.568 284.977 44.0584 284.977 43.0392C284.977 42.5608 284.696 42.2176 284.134 42.0096C283.573 41.8016 282.709 41.6248 281.545 41.4792C280.172 41.2712 279.038 41.032 278.144 40.7616C277.249 40.4912 276.469 40.0128 275.804 39.3264C275.159 38.64 274.837 37.6624 274.837 36.3936C274.837 35.3328 275.138 34.3968 275.741 33.5856C276.365 32.7536 277.26 32.1088 278.425 31.6512C279.61 31.1936 281.004 30.9648 282.605 30.9648C283.791 30.9648 284.966 31.1 286.131 31.3704C287.317 31.62 288.294 31.9736 289.064 32.4312L287.441 35.8944C285.965 35.0624 284.353 34.6464 282.605 34.6464C281.565 34.6464 280.785 34.792 280.265 35.0832C279.745 35.3744 279.485 35.7488 279.485 36.2064C279.485 36.7264 279.766 37.0904 280.328 37.2984C280.889 37.5064 281.784 37.704 283.011 37.8912C284.384 38.12 285.507 38.3696 286.381 38.64C287.254 38.8896 288.013 39.3576 288.658 40.044C289.303 40.7304 289.625 41.6872 289.625 42.9144C289.625 43.9544 289.313 44.88 288.689 45.6912C288.065 46.5024 287.15 47.1368 285.944 47.5944C284.758 48.0312 283.344 48.2496 281.701 48.2496ZM133.59 57.16H138.644V74.8816H149.595V79H133.59V57.16ZM168.989 62.2144V79H164.341V77.0656C163.134 78.5216 161.387 79.2496 159.099 79.2496C157.518 79.2496 156.083 78.896 154.793 78.1888C153.525 77.4816 152.526 76.4728 151.798 75.1624C151.07 73.852 150.706 72.3336 150.706 70.6072C150.706 68.8808 151.07 67.3624 151.798 66.052C152.526 64.7416 153.525 63.7328 154.793 63.0256C156.083 62.3184 157.518 61.9648 159.099 61.9648C161.241 61.9648 162.916 62.6408 164.122 63.9928V62.2144H168.989ZM159.941 75.256C161.169 75.256 162.188 74.84 162.999 74.008C163.81 73.1552 164.216 72.0216 164.216 70.6072C164.216 69.1928 163.81 68.0696 162.999 67.2376C162.188 66.3848 161.169 65.9584 159.941 65.9584C158.693 65.9584 157.664 66.3848 156.853 67.2376C156.041 68.0696 155.636 69.1928 155.636 70.6072C155.636 72.0216 156.041 73.1552 156.853 74.008C157.664 74.84 158.693 75.256 159.941 75.256ZM183.417 61.9648C184.977 61.9648 186.392 62.3288 187.66 63.0568C188.95 63.764 189.959 64.7728 190.687 66.0832C191.415 67.3728 191.779 68.8808 191.779 70.6072C191.779 72.3336 191.415 73.852 190.687 75.1624C189.959 76.452 188.95 77.4608 187.66 78.1888C186.392 78.896 184.977 79.2496 183.417 79.2496C181.108 79.2496 179.351 78.5216 178.144 77.0656V79H173.496V55.8496H178.363V63.9928C179.59 62.6408 181.275 61.9648 183.417 61.9648ZM182.575 75.256C183.823 75.256 184.842 74.84 185.632 74.008C186.444 73.1552 186.849 72.0216 186.849 70.6072C186.849 69.1928 186.444 68.0696 185.632 67.2376C184.842 66.3848 183.823 65.9584 182.575 65.9584C181.327 65.9584 180.297 66.3848 179.486 67.2376C178.696 68.0696 178.3 69.1928 178.3 70.6072C178.3 72.0216 178.696 73.1552 179.486 74.008C180.297 74.84 181.327 75.256 182.575 75.256Z" fill="white"/>
<path d="M113.166 71.3049C112.518 70.4577 111.709 69.748 110.784 69.2173C109.859 68.6866 108.838 68.3457 107.78 68.2141C103.727 67.6553 100.06 65.5148 97.5798 62.2605C95.1 59.006 94.0092 54.9024 94.5457 50.8463C94.7512 49.2787 94.489 47.6854 93.7919 46.2664C93.0949 44.8473 91.9941 43.6659 90.6279 42.8705C89.2615 42.0751 87.6906 41.7012 86.1124 41.7956C84.5343 41.89 83.0193 42.4486 81.7576 43.4013C80.4959 44.354 79.5438 45.6582 79.0209 47.1502C78.4981 48.6423 78.4277 50.2555 78.8187 51.7873C79.2097 53.3192 80.0446 54.7014 81.2186 55.7603C82.3925 56.8192 83.8532 57.5077 85.4171 57.7391C87.4372 58.0039 89.3851 58.6648 91.1493 59.684C92.9134 60.703 94.4591 62.0604 95.6976 63.678C96.9362 65.2956 97.8433 67.1418 98.367 69.1107C98.8908 71.0796 99.0207 73.1325 98.7495 75.1517C98.5984 76.4513 98.7674 77.768 99.2418 78.9872C99.7162 80.2063 100.482 81.291 101.471 82.1467C102.461 83.0023 103.645 83.6029 104.92 83.8961C106.195 84.1894 107.522 84.1663 108.786 83.829C110.05 83.4917 111.213 82.8504 112.172 81.961C113.131 81.0715 113.859 79.961 114.29 78.726C114.722 77.491 114.845 76.1693 114.649 74.8758C114.453 73.5823 113.944 72.3563 113.166 71.3049Z" fill="white"/>
<path d="M63.2347 66.944C64.7022 67.5783 66.3257 67.7599 67.8969 67.4652C69.4683 67.1704 70.9157 66.413 72.0535 65.29C73.1914 64.1668 73.9677 62.7294 74.2829 61.1622C74.5981 59.5948 74.4378 57.9691 73.8226 56.4935C73.0417 54.6116 72.6399 52.5941 72.6403 50.5566C72.6408 48.5192 73.0432 46.5018 73.8248 44.6203C74.6064 42.7387 75.7517 41.0299 77.195 39.5918C78.6383 38.1537 80.3512 37.0147 82.2356 36.2399C83.6963 35.6308 84.9442 34.6033 85.8223 33.2867C86.7003 31.9701 87.1694 30.4231 87.1703 28.8405C87.1713 27.2579 86.7041 25.7103 85.8276 24.3927C84.9511 23.0749 83.7044 22.0459 82.2445 21.4351C80.7845 20.8243 79.1765 20.6589 77.6229 20.9599C76.0692 21.2608 74.6391 22.0145 73.5128 23.1263C72.3864 24.238 71.6141 25.6581 71.2929 27.2077C70.9718 28.7574 71.1162 30.3674 71.7079 31.8352C73.2552 35.6226 73.2391 39.869 71.6631 43.6446C70.087 47.4202 67.0794 50.4177 63.2985 51.981C61.8031 52.5675 60.5182 53.5893 59.6101 54.9143C58.7019 56.2393 58.2124 57.8063 58.205 59.4125C58.1977 61.0188 58.6727 62.5903 59.5686 63.9235C60.4645 65.2569 61.7399 66.2905 63.2298 66.8906L63.2347 66.944Z" fill="white"/>
<path d="M83.6724 63.7528C82.6137 63.8876 81.5925 64.2322 80.6686 64.7666C79.7447 65.3009 78.9367 66.0141 78.2919 66.8647C75.7839 70.0942 72.0992 72.1994 68.0435 72.72C63.9877 73.2406 59.8907 72.1341 56.6484 69.6426C55.8097 68.9889 54.8495 68.5084 53.8235 68.2291C52.7976 67.9499 51.7264 67.8774 50.6721 68.0158C49.3754 68.1967 48.1426 68.6923 47.0815 69.4593C46.0203 70.2262 45.163 71.2412 44.5844 72.4156C44.0058 73.5901 43.7234 74.8884 43.7619 76.1971C43.8005 77.5059 44.1587 78.7852 44.8055 79.9236C45.4522 81.062 46.3677 82.0248 47.4721 82.728C48.5766 83.4313 49.8363 83.8533 51.1414 83.9577C52.4465 84.062 53.7574 83.8453 54.9595 83.3265C56.1616 82.8077 57.2185 82.0025 58.0377 80.9813C59.2782 79.3637 60.8255 78.0068 62.5911 76.9883C64.3569 75.9698 66.3061 75.3095 68.3273 75.0455C70.3485 74.7816 72.402 74.9188 74.37 75.4497C76.3381 75.9806 78.1821 76.8945 79.7963 78.1391C80.845 78.9253 82.0704 79.4425 83.3653 79.6455C84.6602 79.8487 85.9851 79.7313 87.2241 79.3039C88.4632 78.8765 89.5785 78.1521 90.4728 77.1939C91.3671 76.2357 92.013 75.0728 92.354 73.8073C92.695 72.5417 92.7207 71.2119 92.4289 69.9341C92.1371 68.6563 91.5366 67.4695 90.6799 66.4774C89.8233 65.4854 88.7368 64.7184 87.5152 64.2434C86.2935 63.7685 84.9741 63.6 83.6724 63.7528Z" fill="white"/>
</svg>
