<svg width="16" height="16" viewBox="0 0 16 16" fill="none" xmlns="http://www.w3.org/2000/svg">
<path d="M12.0466 5.67342L6.33993 2.82009C2.5066 0.90009 0.933265 2.47342 2.85327 6.30676L3.43326 7.46676C3.59993 7.80676 3.59993 8.20009 3.43326 8.54009L2.85327 9.69342C0.933265 13.5268 2.49993 15.1001 6.33993 13.1801L12.0466 10.3268C14.6066 9.04676 14.6066 6.95342 12.0466 5.67342ZM9.89326 8.50009H6.29326C6.01993 8.50009 5.79326 8.27342 5.79326 8.00009C5.79326 7.72676 6.01993 7.50009 6.29326 7.50009H9.89326C10.1666 7.50009 10.3933 7.72676 10.3933 8.00009C10.3933 8.27342 10.1666 8.50009 9.89326 8.50009Z" fill="white"/>
</svg>
